<svg version="1.1" id="Layer_1" xmlns="http://www.w3.org/2000/svg" x="0" y="0" viewBox="0 0 149.5 62.5" xml:space="preserve"><style>.st0{fill:#fff}</style><path class="st0" d="M42.6 26.3h-7.1V11H24.1v41h11.4V36.1h7.1V52h11.2V11H42.6zm62.1-15.9c-11.5 0-17.4 8.4-18.8 11.8C86 17.1 80.9 11 75 11H56v41h17.7C80.9 52 86 45.8 86 40.4c1.6 3.3 7.2 11.7 18.8 11.7 11.4 0 20.7-9.5 20.7-21-.1-11.7-9.4-20.7-20.8-20.7zm-32.4 32h-5.6v-6.9h5.6c1.6 0 3 1.6 3 3.4 0 1.9-1.3 3.5-3 3.5zm0-15.4h-5.6v-6.8h5.6c1.6 0 3 1.6 3 3.4 0 1.8-1.3 3.4-3 3.4zm11.8 7.3c-.9-1.3-3-2.9-4.3-3.1 1.3-.1 3.5-1.6 4.3-2.5-.4 1-.4 4.5 0 5.6zm20.6 7.3c-5.7 0-10.4-4.6-10.4-10.4 0-5.7 4.6-10.4 10.4-10.4 5.7 0 10.4 4.6 10.4 10.4 0 5.7-4.6 10.4-10.4 10.4z"/><path class="st0" d="M104.7 23c-4.6 0-8.2 3.6-8.2 8.2s3.6 8.2 8.2 8.2c4.4 0 8.2-3.6 8.2-8.2s-3.7-8.2-8.2-8.2z"/></svg>