<svg version="1.1" id="Layer_1" xmlns="http://www.w3.org/2000/svg" x="0" y="0" viewBox="0 0 149.5 62.5" xml:space="preserve"><style>.st0{display:none}.st1{display:inline}.st2{fill:#fff}</style><g id="HBO" class="st0"><g class="st1"><path class="st2" d="M29.2 24.2H19V2.6H2.8v58.1H19V38.1h10.2v22.6H45V2.6H29.2zm88.1-22.6c-16.4 0-24.7 11.9-26.7 16.8 0-7.2-7.2-15.8-15.5-15.8h-27v58.1h25.1c10.2 0 17.4-8.7 17.4-16.4C93 49 101 60.9 117.3 60.9c16.2 0 29.4-13.5 29.4-29.8 0-16.6-13.2-29.5-29.4-29.5zm-46 45.5h-8v-9.8h8c2.3 0 4.2 2.3 4.2 4.8 0 2.8-1.9 5-4.2 5zm0-21.9h-8v-9.7h8c2.3 0 4.2 2.3 4.2 4.9 0 2.5-1.9 4.8-4.2 4.8zM88 35.5c-1.3-1.9-4.2-4.1-6.1-4.5 1.9-.1 4.9-2.3 6.1-3.6-.5 1.7-.5 6.6 0 8.1zm29.3 10.4c-8.2 0-14.8-6.6-14.8-14.8 0-8.1 6.6-14.8 14.8-14.8s14.8 6.6 14.8 14.8-6.6 14.8-14.8 14.8z"/><path class="st2" d="M117.3 19.5c-6.5 0-11.6 5.1-11.6 11.6s5.2 11.6 11.6 11.6c6.3 0 11.6-5.2 11.6-11.6s-5.3-11.6-11.6-11.6z"/></g></g><g id="Suntory" class="st0"><g id="layer1" class="st1"><g id="g47705"><path id="path47707" class="st2" d="M50.9 40.6h-6.1c.2-2 .3-5.1.3-8.1v-2.7c0-3-.1-6.4-.4-8.1h3.5c1.3 0 2 .4 2.2 1.3 1.5-1.1 3.4-1.8 5.3-1.7 6.5 0 7.3 3.9 7.3 6.8v5.3c0 2.4.1 4.8.3 7.3h-3.6c-1.7 0-2.5-1-2.5-2.7v-7.7c0-3.1-.3-5.4-4.1-5.4-.8 0-1.7.1-2.5.4v6.8c.1 2.4.1 6.5.3 8.5m-18-19H39c-.2 2-.3 5.1-.3 8.1v2.7c0 3.1.1 6.4.4 8.1h-3.5c-1.3 0-2-.4-2.2-1.3-1.5 1.2-3.4 1.8-5.3 1.8-6.5 0-7.3-3.9-7.3-6.8v-5.3c0-2.4-.1-4.9-.4-7.3H24c1.7 0 2.5 1 2.5 2.7V32c0 3.1.3 5.4 4.1 5.4.8 0 1.7-.1 2.5-.4v-6.8c0-2.5-.1-6.6-.2-8.6m-17.3 4.5c-1.1-1-3.1-1.6-5.1-1.6-1.4 0-3.2.2-3.2 1.9 0 1.2 1.5 1.8 3.6 2.6 2.5 1 5.5 2.2 5.5 5.7 0 5.7-6 6.4-8.9 6.4-1.6 0-3.1-.1-4.6-.5-1.3-.4-1.6-.9-1.6-2.7v-2.1c1.5 1 3.8 1.5 5.7 1.5 2.3 0 3.5-.7 3.5-2.1 0-1.4-1.2-1.9-4.5-3.1-2.2-.9-4.6-2-4.6-5.3 0-4.8 5.4-6 8.7-6 1.6 0 3.1.2 4.6.8.9.4.9.9.9 2.1v2.4z"/></g><g id="g47709"><path id="path47711" class="st2" d="M90 31c0 4.4 1.5 6.3 4.5 6.3 2.9 0 4.3-2 4.3-6.3s-1.4-6.4-4.3-6.4c-3 0-4.5 2.1-4.5 6.4m14.4-.1c0 6.3-3.6 10.2-10.2 10.2-6.5 0-9.9-3.6-9.9-10S87.9 21 94.4 21s10 3.5 10 9.9m-23.9-9.3c1.1 0 2.3-.1 3.4-.2-.2.9-.5 1.9-.9 2.8-.5 1.1-1.2 1.4-3.7 1.4h-2.2v6.5c0 2.4.1 6.5.3 8.5h-6.2c.2-2 .3-6.1.3-8.5v-6.5h-1.9c-1.7 0-3.1.2-3.8.6v-2.5c0-1.5.3-2.1 2.5-2.1h12.2z"/></g><g id="g47713"><path id="path47715" class="st2" d="M140.5 35.1v.4c0 1.7.1 3.4.3 5.1h-6.2c.2-1.7.3-3.4.3-5.1v-.4c0-.8-.2-1.6-.9-2.9-1.4-2.8-4.4-8.1-7-10.5 1.3-.1 2.7-.2 4.1-.2 2.4 0 3.1.8 3.7 1.7 1.2 2.1 2.2 4.2 3.2 6.5.9-2.2 2-4.3 3.1-6.4.6-.9 1.4-1.8 3.4-1.8 1.2 0 2.4.1 3.6.2-1.9 1.7-5.4 7.6-6.9 10.2-.5 1-.8 2.1-.7 3.2m-15.6 6.6c-2.3 0-2.8-.9-4.3-3-.8-1.2-3.3-5.4-3.8-6.3-.2-.4-.3-.8.2-1 1.9-1.1 2.4-2.2 2.4-3.6 0-1.5-.7-2.8-2.8-2.8-.7 0-1.4.1-2 .2v6.9c0 2.4.1 6.5.3 8.5H109c.2-1.9.3-5.1.3-8.1v-2.7c0-3.1-.1-6.4-.4-8.1 2.8 0 7-.1 8.8-.1 3.2 0 7.5.6 7.5 5.4 0 1.9-.9 3.6-2.5 4.6-.3.2-.3.4 0 .8 2 3.1 4.5 6.5 6.8 8.9-1.7.2-3.1.3-4.6.4"/></g></g></g><g id="Furama" class="st0"><g class="st1"><path class="st2" d="M32.1 42.5h7v-.7h-1.6v-13c2.4 0 2.8 2.5 2.8 5.5h.5V23h-.5c-.1 2.8-.3 5.1-2.8 5.1V16h.7c3.6 0 4.7 2.8 5 7.2h.6l-.2-7.9H32.1v.7h1.3v25.8h-1.3v.7zm19.6-6.8c0 4.4 1.7 7.3 5.2 7.3 4 0 5.3-2.7 5.3-7.3V17.3c0-1 .3-1.3 1.3-1.3v-.7H60v.7c1.1 0 1.5.3 1.5 1.7V36c0 3.4-1 6-3.2 6-2 0-2.7-1.9-2.7-4.9V16H57v-.7h-6.8v.7h1.3l.2 19.7zM75.8 16h.8c2.7 0 2.8 2.5 2.8 5.7 0 5.1-1.1 5.7-3.6 5.9V16zm-5.3 26.5h6.7v-.7h-1.4V28.3c2.4 0 2.8 1.4 2.8 3.7l.1 5.1c.1 2.6.6 5.7 3.4 5.7 1.1 0 2.2-.4 2.6-.7l-.2-.7c-.2.1-.4.3-.6.3-.7 0-1-.5-1-2.9v-2c0-6.4-1.2-8.3-5.6-8.7V28c3-.2 6.4-1.8 6.4-6.5 0-4.6-2.9-6.2-6.2-6.2h-7.2v.7h1.3v25.8h-1.3l.2.7zm26.6-8.9h-3.7l1.8-9.5h.1l1.8 9.5zM90 42.5h3.6v-.7c-.4 0-1.4 0-1.4-.9 0-.3.2-1.5.5-3l.7-3.6h3.9l1.4 7.5h-1.3v.7h6.6v-.7h-1.2l-5-26.5h-1.3l-4.8 24.9c-.2 1.2-.7 1.6-1.6 1.6-.1 0-.1.7-.1.7zm19.7 0h3.6v-.7c-1.2 0-1.5-.3-1.5-3.6V16.5h.1l4.6 26.1h.9l4.5-25.8h.1v25.1h-1.5v.7h6.7v-.7h-1.3V16h1.3v-.7h-5.5l-3 16.9h-.1l-3-16.9H110v.7h1.3v22.2c0 3.3-.2 3.6-1.4 3.6l-.2.7zm29.8-8.9h-3.6l1.8-9.5h.1l1.7 9.5zm-7.1 8.9h3.6v-.7c-.4 0-1.4 0-1.4-.9 0-.3.2-1.5.5-3l.6-3.6h3.9l1.4 7.5h-1.3v.7h6.6v-.7h-1.2l-5-26.5h-1.3L134 40.2c-.2 1.2-.7 1.6-1.6 1.6v.7z"/><path class="st2" d="M25.3 15v7.8H19s-2.4-.3-2.4 4.2c0 0 1.2-2.3 2.4-2.3h6.1v4.9h-6.6s-1.9.1-1.9 1.4v15.7h130.7v.8H10.9V31c0-1.3-1.9-1.4-1.9-1.4H2.4v-4.9h6.1c1.2 0 2.4 2.3 2.4 2.3 0-4.6-2.4-4.2-2.4-4.2H2.2V15h6.5c.8 0 1.7.5 3.2 2.3s1.3 3.3 1.3 3.3v26.1h1V21.1s-.1-2.1 1.4-3.9S18 15 18.7 15h6.6z"/></g></g><path class="st2" d="M49.5 49.6c-.3-.1-.7-.1-1-.2-2.8-.7-4.5-2.5-5.3-5.2-.2-.8-.2-1.6-.4-2.4 0-.2 0-.2.2-.2 1.4-.6 2.9-1 4.4-1.6h.1c0 .3.1.7.1 1 .1 1 .2 1.9.6 2.8.3.7.7 1.3 1.5 1.5.6.2 1.1.2 1.7 0 .7-.2 1-.8 1.2-1.5.2-1 .1-1.9-.5-2.8-.6-1-1.4-1.8-2.3-2.6L47.1 36c-1.5-1.4-2.8-2.9-3.5-4.8-1.6-4.3 1.2-8.1 4.9-9 3-.7 5.8.6 7.3 3.3.2.5.5.9.7 1.4.3.6.6 1 1.2 1.4-1.7.6-3.3 1.3-4.9 1.8-.2-.6-.3-1.3-.6-1.9-.2-.4-.4-.8-.7-1.2-.6-.6-1.2-.9-2-.6-.9.2-1.4.9-1.5 1.7-.2 1.2.2 2.3 1 3.3.7 1 1.6 1.6 2.5 2.2 1.1.8 2.2 1.6 3.2 2.5 1 1.1 2 2.3 2.5 3.7 1.4 4.1-1.3 8.8-5.5 9.6-.2.1-.5.1-.7.2h-1.5zm-7-.7h-20v-.1c1.4-.8 2.1-2 2.7-3.4.6-1.4 1-2.9 1-4.3.1-.7.1-1.5.1-2.2v-22c0-.6-.1-1.3-.3-1.8-.3-.9-.8-1.6-1.6-2.1h15.9c-.2.2-.6.5-.8.8-.7 1-1 2-1 3.1 0 7.6-.1 15.3 0 23 0 2.4.6 4.7 1.7 6.8.7.8 1.3 1.6 2.3 2.2zm-10-33.3c-2 0-3.6 1.6-3.6 3.5 0 2 1.6 3.6 3.6 3.6s3.6-1.6 3.6-3.5c0-2.1-1.6-3.6-3.6-3.6zm88.4 18.8V22.3h6.1c-.6.6-.8 1.4-.8 2.2v24.1c0 .2-.1.2-.2.2h-4.8c-.2 0-.3-.1-.3-.2-1.2-3.9-2.4-7.7-3.5-11.6 0-.1-.1-.2-.1-.2h-.1v12.1H112V22.4h5c.2 0 .3.1.4.2 1.2 3.9 2.4 7.8 3.6 11.6-.2 0-.2.1-.1.2zm-29 14.5c1.4-8.8 2.9-17.6 4.4-26.5h8.3c-.6 1-.5 2-.3 2.9.3 2 .6 4.1 1 6 .3 1.9.6 3.8 1 5.7.3 2 .6 4 1 6 .3 1.9.6 3.7 1 5.6v.2h-5c-.2 0-.3-.1-.3-.3-.2-1.4-.3-2.9-.5-4.4 0-.2-.1-.6-.1-.8 0-.2-.1-.2-.2-.2h-3.6c-.2 0-.2.1-.2.2-.2 1.4-.3 2.9-.6 4.3 0 .3-.1.6-.1 1 0 .2-.1.2-.2.2h-5.1c-.4.1-.4.1-.5.1zm8.1-21.8c-.6 3.9-1.1 7.9-1.6 11.8h3c-.4-4-.9-7.8-1.4-11.8zm-24.6-4.8c-.1.1-.1.2-.2.2-.6.4-.7 1-.7 1.7v2.4c0 .2-.1.3-.3.3H67c-.3 0-.3 0-.3.4v5.3c0 .2.1.3.3.3h6v4.5h-6.4v7.1h7.8V49H61.7c-.3 0-.3 0-.3-.4V22.8c0-.3 0-.3.3-.3h13.4c.1-.2.2-.2.3-.2zm16.8 0c-.2.2-.2.3-.3.4-.4.5-.6 1.1-.6 1.7v2.3h-4.1c-.4 0-.4 0-.4.4v21.7h-5.2V27.1c0-.2-.1-.3-.3-.3h-4.2v-4.5h15.1z" id="Isetan"/></svg>