<svg version="1.1" id="Layer_1" xmlns="http://www.w3.org/2000/svg" x="0" y="0" viewBox="0 0 223.5 46.7" xml:space="preserve"><style>.st0{display:none}.st1{display:inline}.st2{fill:#fff}</style><g id="HBO" class="st0"><g class="st1"><path class="st2" d="M29.2 8.5H19v-21.7H2.8v58.1H19V22.4h10.2v22.5H45v-58.1H29.2zm88.1-22.7C101-14.2 92.7-2.3 90.7 2.6c0-7.2-7.2-15.8-15.5-15.8h-27v58.1h25.1c10.2 0 17.4-8.7 17.4-16.4 2.3 4.7 10.3 16.6 26.7 16.6 16.2 0 29.4-13.5 29.4-29.8-.1-16.6-13.3-29.5-29.5-29.5zm-46 45.6h-8v-9.8h8c2.3 0 4.2 2.3 4.2 4.8 0 2.7-1.9 5-4.2 5zm0-22h-8V-.3h8c2.3 0 4.2 2.3 4.2 4.9 0 2.6-1.9 4.8-4.2 4.8zM88 19.8c-1.3-1.9-4.2-4.1-6.1-4.5 1.9-.1 4.9-2.3 6.1-3.6-.5 1.6-.5 6.5 0 8.1zm29.3 10.3c-8.2 0-14.8-6.6-14.8-14.8 0-8.1 6.6-14.8 14.8-14.8s14.8 6.6 14.8 14.8c0 8.2-6.6 14.8-14.8 14.8z"/><path class="st2" d="M117.3 3.7c-6.5 0-11.6 5.1-11.6 11.6S110.9 27 117.3 27c6.3 0 11.6-5.2 11.6-11.6s-5.3-11.7-11.6-11.7z"/></g></g><g id="Suntory" class="st0"><g id="layer1" class="st1"><g id="g47705"><path id="path47707" class="st2" d="M50.9 24.8h-6.1c.2-2 .3-5.1.3-8.1V14c0-3-.1-6.4-.4-8.1h3.5c1.3 0 2 .4 2.2 1.3 1.5-1.1 3.4-1.8 5.3-1.7 6.5 0 7.3 3.9 7.3 6.8v5.3c0 2.4.1 4.8.3 7.3h-3.6c-1.7 0-2.5-1-2.5-2.7v-7.7c0-3.1-.3-5.4-4.1-5.4-.8 0-1.7.1-2.5.4v6.8c.1 2.4.1 6.5.3 8.5m-18-18.9H39c-.2 2-.3 5.1-.3 8.1v2.7c0 3.1.1 6.4.4 8.1h-3.5c-1.3 0-2-.4-2.2-1.3-1.5 1.2-3.4 1.8-5.3 1.8-6.5 0-7.3-3.9-7.3-6.8v-5.3c0-2.4-.1-4.9-.4-7.3H24c1.7 0 2.5 1 2.5 2.7v7.7c0 3.1.3 5.4 4.1 5.4.8 0 1.7-.1 2.5-.4v-6.8c0-2.6-.1-6.7-.2-8.6m-17.3 4.5c-1.1-1-3.1-1.6-5.1-1.6-1.4 0-3.2.2-3.2 1.9 0 1.2 1.5 1.8 3.6 2.6 2.5 1 5.5 2.2 5.5 5.7 0 5.7-6 6.4-8.9 6.4-1.6 0-3.1-.1-4.6-.5-1.3-.4-1.6-.9-1.6-2.7v-2.1c1.5 1 3.8 1.5 5.7 1.5 2.3 0 3.5-.7 3.5-2.1 0-1.4-1.2-1.9-4.5-3.1-2.2-.9-4.6-2-4.6-5.3 0-4.8 5.4-6 8.7-6 1.6 0 3.1.2 4.6.8.9.4.9.9.9 2.1v2.4z"/></g><g id="g47709"><path id="path47711" class="st2" d="M90 15.2c0 4.4 1.5 6.3 4.5 6.3 2.9 0 4.3-2 4.3-6.3s-1.4-6.4-4.3-6.4c-3 0-4.5 2.1-4.5 6.4m14.4 0c0 6.3-3.6 10.2-10.2 10.2-6.5 0-9.9-3.6-9.9-10S87.9 5.3 94.4 5.3s10 3.5 10 9.9M80.5 5.9c1.1 0 2.3-.1 3.4-.2-.2.9-.5 1.9-.9 2.8-.5 1.1-1.2 1.4-3.7 1.4h-2.2v6.5c0 2.4.1 6.5.3 8.5h-6.2c.2-2 .3-6.1.3-8.5V9.8h-1.9c-1.7 0-3.1.2-3.8.6V7.9c0-1.5.3-2.1 2.5-2.1l12.2.1z"/></g><g id="g47713"><path id="path47715" class="st2" d="M140.5 19.3v.4c0 1.7.1 3.4.3 5.1h-6.2c.2-1.7.3-3.4.3-5.1v-.4c0-.8-.2-1.6-.9-2.9-1.4-2.8-4.4-8.1-7-10.5 1.3-.1 2.7-.2 4.1-.2 2.4 0 3.1.8 3.7 1.7 1.2 2.1 2.2 4.3 3.2 6.5.9-2.2 2-4.3 3.1-6.4.6-.9 1.4-1.8 3.4-1.8 1.2 0 2.4.1 3.6.2-1.9 1.7-5.4 7.6-6.9 10.2-.5 1-.8 2.1-.7 3.2m-15.6 6.6c-2.3 0-2.8-.9-4.3-3-.8-1.2-3.3-5.4-3.8-6.3-.2-.4-.3-.8.2-1 1.9-1.1 2.4-2.2 2.4-3.6 0-1.5-.7-2.8-2.8-2.8-.7 0-1.4.1-2 .2v6.9c0 2.4.1 6.5.3 8.5H109c.2-1.9.3-5.1.3-8.1V14c0-3.1-.1-6.4-.4-8.1 2.8 0 7-.1 8.8-.1 3.2 0 7.5.6 7.5 5.4 0 1.9-.9 3.6-2.5 4.6-.3.2-.3.4 0 .8 2 3.1 4.5 6.5 6.8 8.9-1.7.2-3.1.4-4.6.4"/></g></g></g><g id="Furama" class="st0"><g class="st1"><path class="st2" d="M32.1 26.8h7v-.7h-1.6V13c2.4 0 2.8 2.5 2.8 5.5h.5V7.2h-.5c-.1 2.8-.3 5.1-2.8 5.1V.2h.7c3.6 0 4.7 2.8 5 7.2h.6l-.2-7.9H32.1v.7h1.3V26h-1.3v.8zM51.7 20c0 4.4 1.7 7.3 5.2 7.3 4 0 5.3-2.7 5.3-7.3V1.5c0-1 .3-1.3 1.3-1.3v-.7H60v.7c1.1 0 1.5.3 1.5 1.7v18.2c0 3.4-1 6-3.2 6-2 0-2.7-1.9-2.7-4.9V.2H57v-.7h-6.8v.7h1.3l.2 19.8zM75.8.2h.8c2.7 0 2.8 2.5 2.8 5.7 0 5.1-1.1 5.7-3.6 5.9V.2zm-5.3 26.6h6.7v-.7h-1.4V12.5c2.4 0 2.8 1.4 2.8 3.7l.1 5.1c.1 2.6.6 5.7 3.4 5.7 1.1 0 2.2-.4 2.6-.7l-.2-.7c-.2.1-.4.3-.6.3-.7 0-1-.5-1-2.9v-2c0-6.4-1.2-8.3-5.6-8.7v-.1c3-.2 6.4-1.8 6.4-6.5 0-4.6-2.9-6.2-6.2-6.2h-7.2v.7h1.3V26h-1.3l.2.8zm26.6-8.9h-3.7l1.8-9.5h.1l1.8 9.5zM90 26.8h3.6v-.7c-.4 0-1.4 0-1.4-.9 0-.3.2-1.5.5-3l.7-3.6h3.9l1.4 7.5h-1.3v.7h6.6v-.7h-1.2l-5-26.5h-1.3l-4.8 24.9c-.2 1.2-.7 1.6-1.6 1.6-.1 0-.1.7-.1.7zm19.7 0h3.6v-.7c-1.2 0-1.5-.3-1.5-3.6V.7h.1l4.6 26.1h.9L121.9 1h.1v25.1h-1.5v.7h6.7v-.7h-1.3V.2h1.3v-.7h-5.5l-3 16.9h-.1l-3-16.9H110v.7h1.3v22.2c0 3.3-.2 3.6-1.4 3.6l-.2.8zm29.8-8.9h-3.6l1.8-9.5h.1l1.7 9.5zm-7.1 8.9h3.6v-.7c-.4 0-1.4 0-1.4-.9 0-.3.2-1.5.5-3l.6-3.6h3.9l1.4 7.5h-1.3v.7h6.6v-.7h-1.2l-5-26.5h-1.3L134 24.4c-.2 1.2-.7 1.6-1.6 1.6v.8z"/><path class="st2" d="M25.3-.8V7H19s-2.4-.3-2.4 4.2c0 0 1.2-2.3 2.4-2.3h6.1v4.9h-6.6s-1.9.1-1.9 1.4v15.7h130.7v.8H10.9V15.2c0-1.3-1.9-1.4-1.9-1.4H2.4V8.9h6.1c1.2 0 2.4 2.3 2.4 2.3C10.9 6.7 8.5 7 8.5 7H2.2V-.8h6.5c.8 0 1.7.5 3.2 2.3s1.3 3.3 1.3 3.3v26.1h1V5.3s-.1-2.1 1.4-3.9S18-.9 18.8-.9l6.5.1z"/></g></g><g id="Isetan" class="st0"><g class="st1"><path class="st2" d="M39.2 41.3c-.5-.1-1-.2-1.4-.3-3.9-1-6.3-3.6-7.5-7.4-.3-1.1-.4-2.3-.6-3.4 0-.2 0-.3.2-.4 2.1-.8 4.1-1.5 6.2-2.3h.1c0 .5.1 1 .1 1.5.1 1.3.3 2.7.9 3.9.4 1 1.1 1.8 2.2 2.1.8.2 1.6.2 2.4 0 1-.3 1.5-1.1 1.7-2.1.3-1.4.1-2.7-.7-3.9-.9-1.4-2-2.6-3.2-3.6-1.3-1.1-2.6-2.2-3.8-3.3-2.2-1.9-4-4.1-5-6.9-2.2-6 1.7-11.4 7-12.7 4.2-1 8.1.8 10.3 4.7.3.6.7 1.3 1 1.9.4.8.9 1.5 1.7 2-2.4.9-4.7 1.8-6.9 2.6-.3-.9-.5-1.8-.8-2.7-.2-.6-.6-1.2-1-1.6-.8-.8-1.7-1.2-2.8-.9-1.2.4-2 1.2-2.2 2.4-.3 1.7.3 3.2 1.3 4.6 1 1.3 2.2 2.2 3.5 3.2 1.6 1.1 3.1 2.2 4.5 3.6 1.5 1.5 2.8 3.2 3.5 5.3 2.1 5.8-1.8 12.4-7.8 13.5-.3.1-.7.1-1 .2h-1.9zm-9.9-1H1.1v-.1c1.9-1.1 3-2.8 3.8-4.8.8-2 1.3-4 1.5-6.1.1-1 .1-2.1.2-3.1v-31c0-.9-.1-1.7-.4-2.6-.5-1.2-1.1-2.2-2.2-3h22.4c-.4.4-.9.7-1.2 1.1a7.1 7.1 0 0 0-1.5 4.4c0 10.8-.1 21.6 0 32.4 0 3.3.8 6.6 2.4 9.5.8 1.3 1.8 2.5 3.2 3.3zM15.2-6.6c-2.8 0-5.1 2.2-5.1 5s2.2 5 5 5.1c2.8 0 5-2.2 5.1-5 0-2.9-2.2-5.1-5-5.1zm124.6 26.5V2.8h8.6c-.9.8-1.1 2-1.1 3.1-.1 1.7 0 3.3 0 5v29c0 .3-.1.4-.4.4h-6.7c-.3 0-.4-.1-.5-.4-1.6-5.4-3.3-10.9-5-16.3 0-.1-.1-.2-.1-.4h-.1v17h-7.4V2.8h7c.3 0 .4.1.5.4 1.7 5.5 3.3 10.9 5 16.4 0 .1.1.2.2.3-.1 0 0 0 0 0zM98.9 40.2c2.1-12.5 4.1-24.9 6.2-37.4h11.7c-.9 1.3-.6 2.8-.4 4.2.4 2.9.9 5.7 1.4 8.5.4 2.7.9 5.3 1.3 8 .5 2.8.9 5.6 1.4 8.4.4 2.6.9 5.3 1.3 7.9v.3h-7.2c-.3 0-.4-.1-.4-.4-.2-2-.5-4.1-.7-6.1 0-.4-.1-.7-.1-1.1 0-.2-.1-.3-.3-.3H108c-.2 0-.3.1-.3.3-.2 2-.5 4-.7 6-.1.4-.1.9-.2 1.3 0 .2-.1.3-.3.3h-7.2c-.3.2-.3.2-.4.1zm11.4-30.6h-.1c-.7 5.5-1.4 11.1-2.1 16.6h4.3c-.7-5.5-1.4-11-2.1-16.6zM75.8 2.8l-.3.3c-.8.6-1 1.4-1 2.3 0 1.1-.1 2.3 0 3.4 0 .3-.1.4-.4.4h-10c-.5 0-.5 0-.5.5v7.5c0 .4.1.5.5.5h8.5V24h-9v10h11v6.3H56.7c-.5 0-.5 0-.5-.5V3.4c0-.5 0-.5.5-.5h18.8c-.1-.1 0-.1.3-.1zm23.6.1c-.2.2-.3.4-.5.6-.6.7-.8 1.5-.8 2.4v3.2h-5.9c-.6 0-.6 0-.6.5v30.6h-7.4V9.5c0-.3-.1-.4-.4-.4h-5.9V2.8c7.1.1 14.3.1 21.5.1z"/></g></g><g id="OCBC"><path class="st2" d="M8.2 39.8h28.6l.2-.2c-10.1-.4-20.1-.8-30.1-1.2v-.2H38c.2 0 .5 0 .7-.1v-.2c-11.1-.5-22.2-1-33.2-1.6v-.1h13.1c3.7 0 7.3-.6 10.7-2.2 3.8-1.9 6.3-4.9 6.9-9.1.9-5.8-2.9-11.5-8.7-13-2.1-.6-4.3-.5-6.4.1-.2 0-.5 0-.6-.1l-7.8-8.7v-.1c8.1-5.1 21.6-4.9 30 5.4C51 18.9 49.1 34.1 38.5 42 28.2 49.7 15 47.1 8.2 39.8zm108.4-17.3c.1.1.2.1.3.1 2.9.7 4.9 3.9 3.5 7.5-.8 2.1-2.4 3.3-4.5 4.1-1.8.7-3.7.9-5.6.9-2.4 0-4.8-.1-7.3-.1h-.6V11.7c.1 0 .2-.1.4-.1 3.5 0 7-.1 10.5 0 1.2 0 2.4.4 3.6.8 2.1.8 3.3 2.4 3.4 4.7.1 2.3-1.1 3.9-3 5-.2.1-.4.2-.7.4zm-8.3 5.3v2.4c0 .1.2.4.3.4 1 0 2.1.1 3.1 0 .5 0 .9-.2 1.4-.4 1.1-.5 1.6-1.4 1.5-2.7-.1-1.1-.8-1.8-1.8-2.2-1.4-.5-2.8-.4-4.2-.4-.1 0-.3.3-.3.4v2.5zm0-12.1V21h2.6c.6-.1 1.3-.2 1.9-.5 1.1-.5 1.6-1.4 1.5-2.6-.1-.9-.7-1.7-1.9-1.9-1.4-.2-2.7-.2-4.1-.3zm-41.7-4.6c1.8.1 3.6.3 5.2 1 2.5 1 4.4 2.8 5.3 5.3 1.4 3.6 1.4 7.3-.2 10.9-1.7 3.9-4.9 6.1-9 6.8-2.3.4-4.6.3-6.8-.4-3.1-.9-5.3-2.8-6.3-5.9-1.1-3.1-1.3-6.3-.2-9.4 1.5-4.6 4.8-7.2 9.5-8.1.8-.1 1.7-.1 2.5-.2zm5.5 12.1c-.2-1-.2-1.9-.5-2.9-.4-1.7-1.3-3.1-3-3.8-3.1-1.2-6.8-.2-8 3.6-.8 2.4-.6 4.8.2 7.1.4 1.1 1.1 1.9 2.1 2.5 2.3 1.3 6.4 1.1 8.2-2.2.7-1.3.9-2.8 1-4.3zm90.3-.7c.3.1.4.1.6.2 2.4.7 4 3 3.8 5.5-.3 3.2-2.3 5.5-5.7 6.4-1.4.4-2.8.5-4.3.5-1.9 0-3.8-.1-5.7-.1h-.9V11.7c.1 0 .2-.1.3-.1 3.1 0 6.2-.1 9.3 0 1 0 2 .3 2.9.6 2.1.8 3.4 2.2 3.5 4.5.2 2.5-.9 4.2-3 5.4-.2.1-.5.2-.8.4zm-7.6 2.2v6.6c1.6.1 3.2.3 4.7-.2.9-.3 1.7-.9 2.1-1.9.6-1.7.2-3.6-2.2-4.2-1.5-.5-3-.3-4.6-.3zm0-3.4c1.4 0 2.9.1 4.2-.3.4-.1.8-.3 1.1-.5 1.1-.7 1.4-1.8 1.2-3-.2-1.2-.9-1.9-2-2.2-1.5-.4-3-.2-4.5-.1v6.1zm-14.2-4.4c-1.7-.5-3.4-.7-5.1-.6-2.9.2-4.9 1.8-5.5 4.7-.4 1.7-.3 3.4.1 5.1.7 2.6 2.6 4 5.2 4.2 1.8.1 3.6-.2 5.4-.7.1.9.3 1.9.4 2.8.1.5.2 1.1.2 1.6 0 .1-.1.4-.3.4-3.8 1-7.5 1.3-11.3 0-3.2-1.1-5.2-3.5-6-6.8-.7-3-.6-6 .5-9 1.5-4 4.5-6.1 8.6-6.9 2.6-.5 5.1-.4 7.7.1.7.1.7.1.6.9-.1 1.4-.3 2.8-.5 4.2zm-42.8 0c-1.7-.5-3.4-.7-5.1-.6-3.2.2-5.3 2.2-5.7 5.4-.2 1.4-.2 2.9.2 4.3.6 2.7 2.5 4.3 5.3 4.4.9 0 1.8 0 2.7-.1.9-.1 1.8-.3 2.7-.5.1.9.3 1.8.4 2.7.1.5.2 1.1.2 1.6 0 .1-.1.4-.3.4-3.6.9-7.3 1.2-11 .1-3.3-1.1-5.4-3.3-6.3-6.7-.8-3-.7-6 .3-8.9 1.4-4.1 4.5-6.4 8.7-7.2 2.6-.5 5.1-.4 7.7.1.7.1.7.1.6.9 0 1.3-.2 2.7-.4 4.1zm118.6 8.8c2.2 3.1 4.3 6.1 6.6 9.2h-5.1c-.4 0-.6-.1-.8-.4-1.6-2.5-3.2-4.9-4.8-7.4-.1-.2-.2-.3-.4-.5v8.3h-4.4V9.8h4.4v15.1c.2-.3.3-.4.4-.5 1.5-2.1 3-4.1 4.5-6.2.2-.3.4-.4.7-.4h5.1c-2.1 2.6-4.1 5.2-6.2 7.9z"/><path class="st2" d="M26.2 31H2.5c-1.4-3.9-1.7-8-.9-12.1l4.2 1.5c2.2.8 4.4 1.6 6.6 2.3.4.1.5.3.5.7 0 2.5.7 4.7 2.2 6.8.1.1.2.2.3.4 0 0 .1 0 0 0-.4-1.1-.8-2.3-1.1-3.4-.3-1.2-.3-2.4-.2-3.7.2.1.4.1.6.2 3.7 1.3 7.3 2.6 11 3.9.4.1.5.3.5.7-.1.8 0 1.7 0 2.7zm144.3-8.9c-.2-1.3-.3-2.5-.5-3.8 1.3-.3 2.5-.6 3.7-.7 1.9-.3 3.8-.3 5.6.1 2.8.6 4.2 2.3 4.2 5.2v11.9h-4.2c.1-.9.1-1.7.2-2.6-.1.1-.1.1-.2.1-1.5 2.3-3.7 3-6.3 2.8-.5 0-.9-.1-1.4-.3-2.1-.7-3.2-2.7-2.8-5 .3-1.6 1.2-2.8 2.5-3.7 1.4-.9 3-1.4 4.7-1.6.9-.1 1.9-.2 2.8-.3 0-.5.1-1 0-1.5-.2-1.3-1.1-1.9-2.6-2-2-.1-3.9.2-5.7 1.2.1.2.1.2 0 .2zm8.5 5.3h-1.5c-1.1.1-2.2.2-3.2.8-1 .6-1.4 1.6-1.1 2.6.3.9 1.3 1.3 2.4 1.1 2.2-.3 3.6-2.3 3.4-4.5zm13.3 7.5h-4.4V17.8h4.2c-.1 1-.1 1.9-.2 2.9.1-.2.2-.3.3-.5 1.3-1.8 3-2.7 5.2-2.8.7 0 1.4 0 2.1.2 2 .4 3.2 1.8 3.5 3.9.1.5.1 1 .1 1.5v11.9h-4.4V24.3c0-.4 0-.8-.1-1.3-.2-1.5-1.3-2.2-2.7-1.8-1 .2-1.8.8-2.4 1.7-.8 1.2-1.2 2.5-1.2 3.9v8.1zM5 10.5c3.3 2.1 6.6 4.1 9.8 6.1-.4.9-.9 1.7-1.2 2.7-.3.9-.5 1.8-.8 2.8-3.6-1.4-7.3-2.8-10.9-4.2.6-2.7 1.6-5.1 3.1-7.4zm10.5 5.4c-3.2-2.2-6.4-4.3-9.7-6.5 1.6-2.2 3.4-4 5.7-5.4 2.8 2.8 5.5 5.7 8.3 8.6-1.7.8-3.2 1.8-4.3 3.3zm10.7 11.2c-4-1.6-8-3.1-11.9-4.6.2-1.6 1.2-3.7 2.2-5 .1.1.3.1.4.2 3 1.9 5.9 3.7 8.9 5.6.3.2.5.5.5.9-.2 1-.1 1.9-.1 2.9zM2.8 31.8h6.8c.2 0 .4.2.6.4.5.8 1.3 1 2.2 1 3-.1 5.9 0 9.1 0-.5.5-.9.8-1.2 1.3-.6.9-1.4 1.1-2.5 1.1-3.6-.1-7.3 0-10.9 0-.3 0-.5-.1-.6-.4-.5-1-1.3-1.6-2.4-1.9-.3-.1-.6-.2-.7-.6-.1-.3-.3-.5-.4-.9zm23.4-8.7C23.1 21 20 19 16.9 16.9c.4-.4.7-.8 1.1-1.1.9-.6 1.8-1.2 2.8-1.8.2-.1.4-.1.6.1 1.5 1.5 3 3 4.5 4.6.1.1.2.3.2.4.1 1.3.1 2.6.1 4z"/></g></svg>