<svg xmlns="http://www.w3.org/2000/svg" viewBox="0 0 21 19"><path d="M10 4.4c-3 .1-5.3 2.5-5.3 5.5-.1 3 2.3 5.4 5.2 5.5 3-.1 5.3-2.5 5.2-5.5.1-3-2.2-5.4-5.1-5.5zm0 7.8c-1.3 0-2.3-1.1-2.2-2.3 0-1.3 1-2.3 2.2-2.3 1.3 0 2.3 1.1 2.2 2.3 0 1.2-1 2.3-2.2 2.3z" fill="none"/><path d="M14.3 0h-8C3.1-.1.4 2.5.3 5.7v7.7c.1 3.1 2.8 5.6 6 5.6h8c3.2.1 5.8-2.5 5.9-5.6V5.7c-.1-3.2-2.7-5.8-5.9-5.7zM9.9 15.4c-2.9-.1-5.3-2.5-5.2-5.5 0-3 2.3-5.4 5.3-5.5 2.9.1 5.2 2.5 5.1 5.5.1 3-2.2 5.4-5.2 5.5zm5.9-10.1c-.7 0-1.3-.5-1.3-1.2s.5-1.2 1.2-1.3c.7 0 1.3.5 1.3 1.2s-.5 1.3-1.2 1.3z"/><path d="M10 7.6c-1.2 0-2.2 1-2.2 2.3-.1 1.2.9 2.3 2.2 2.3 1.2 0 2.2-1.1 2.2-2.3.1-1.2-.9-2.3-2.2-2.3z"/></svg>