<svg xmlns="http://www.w3.org/2000/svg" viewBox="0 0 149.5 62.5"><style>.st0{display:none}.st1{display:inline}.st2{fill:#fff}</style><g id="HBO" class="st0"><g class="st1"><path class="st2" d="M29.17 24.23H18.95V2.56H2.78v58.09h16.17V38.14h10.22v22.51h15.79V2.56H29.17zm88.18-22.64c-16.37 0-24.65 11.91-26.65 16.75 0-7.18-7.18-15.78-15.53-15.78H48.19v58.1h25.1c10.22 0 17.4-8.74 17.4-16.37 2.26 4.72 10.29 16.62 26.65 16.62 16.18 0 29.37-13.46 29.37-29.82.01-16.63-13.18-29.5-29.36-29.5zM71.29 47.13h-8.02V37.3h8.02c2.33 0 4.21 2.26 4.21 4.85 0 2.72-1.88 4.98-4.21 4.98zm0-21.93h-8.02v-9.7h8.02c2.33 0 4.21 2.27 4.21 4.85 0 2.59-1.88 4.85-4.21 4.85zm16.69 10.35c-1.3-1.88-4.2-4.14-6.08-4.46 1.88-.13 4.92-2.27 6.08-3.56-.45 1.55-.45 6.47 0 8.02zm29.37 10.35c-8.15 0-14.75-6.6-14.75-14.81 0-8.15 6.6-14.75 14.75-14.75s14.75 6.6 14.75 14.75c0 8.22-6.6 14.81-14.75 14.81z"/><path class="st2" d="M117.35 19.51c-6.47 0-11.64 5.11-11.64 11.58s5.17 11.64 11.64 11.64c6.28 0 11.58-5.17 11.58-11.64 0-6.47-5.3-11.58-11.58-11.58z"/></g></g><g id="Suntory" class="st0"><g id="layer1" class="st1"><g id="g47705"><path id="path47707" class="st2" d="M50.92 40.58H44.8c.22-1.96.29-5.1.29-8.13v-2.69c0-3.03-.07-6.38-.44-8.12h3.49c1.3 0 1.95.44 2.18 1.3a8.726 8.726 0 0 1 5.3-1.74c6.52 0 7.33 3.92 7.33 6.82v5.31c-.03 2.42.08 4.85.34 7.26H59.7c-1.67 0-2.46-1.02-2.46-2.69v-7.7c0-3.06-.29-5.37-4.08-5.37-.84-.01-1.68.14-2.46.44v6.81c-.01 2.38-.01 6.53.22 8.5M32.89 21.63h6.1c-.21 1.95-.28 5.1-.28 8.12v2.69c0 3.06.14 6.39.43 8.13h-3.47c-1.31 0-1.96-.44-2.19-1.31a8.707 8.707 0 0 1-5.29 1.75c-6.53 0-7.33-3.92-7.33-6.83v-5.3c.02-2.42-.1-4.85-.36-7.26h3.62c1.67 0 2.46 1.02 2.46 2.69v7.7c0 3.06.3 5.37 4.08 5.37.84.01 1.68-.14 2.47-.44v-6.83c0-2.4-.08-6.54-.22-8.5m-17.27 4.52c-1.09-1.02-3.06-1.6-5.1-1.6-1.45 0-3.19.22-3.19 1.89 0 1.23 1.45 1.8 3.63 2.61 2.54.95 5.51 2.18 5.51 5.73 0 5.67-6.02 6.39-8.85 6.39-1.56.04-3.12-.13-4.64-.5-1.31-.36-1.6-.94-1.6-2.69v-2.1c1.46 1.02 3.78 1.52 5.66 1.52 2.32 0 3.48-.65 3.48-2.1 0-1.38-1.23-1.89-4.5-3.12-2.25-.87-4.64-2.04-4.64-5.31 0-4.79 5.44-6.03 8.71-6.03 1.56-.04 3.11.24 4.56.81.87.44.95.94.95 2.1l.02 2.4z"/></g><g id="g47709"><path id="path47711" class="st2" d="M89.96 31c0 4.36 1.52 6.31 4.5 6.31 2.9 0 4.35-1.96 4.35-6.31s-1.44-6.38-4.35-6.38c-2.99 0-4.5 2.04-4.5 6.38m14.44-.07c0 6.31-3.63 10.23-10.16 10.23-6.52 0-9.86-3.57-9.86-10.02 0-6.39 3.56-10.09 10.09-10.09 6.53 0 9.94 3.48 9.94 9.86m-23.88-9.27c1.14 0 2.28-.07 3.42-.22-.24.94-.53 1.86-.88 2.76-.52 1.09-1.18 1.43-3.71 1.43h-2.18v6.46c0 2.38.06 6.53.29 8.5H71.3c.22-1.96.29-6.12.29-8.5v-6.46H69.7c-1.67 0-3.12.22-3.84.65v-2.54c0-1.45.29-2.1 2.46-2.1l12.21.02z"/></g><g id="g47713"><path id="path47715" class="st2" d="M140.46 35.07v.44c-.02 1.7.08 3.41.29 5.1h-6.18c.21-1.69.31-3.39.29-5.1v-.44c0-.8-.21-1.59-.86-2.9-1.38-2.76-4.42-8.06-7.04-10.46 1.35-.15 2.72-.22 4.08-.21 2.38 0 3.12.8 3.7 1.74a67.92 67.92 0 0 1 3.19 6.46c.93-2.18 1.97-4.32 3.12-6.39.58-.87 1.38-1.81 3.42-1.81 1.21 0 2.43.08 3.63.21-1.89 1.67-5.44 7.55-6.9 10.24-.54.95-.79 2.03-.73 3.11m-15.52 6.61c-2.33 0-2.83-.87-4.28-2.98-.81-1.16-3.34-5.44-3.78-6.32-.21-.43-.29-.8.15-1.02 1.89-1.1 2.4-2.25 2.4-3.56 0-1.53-.66-2.83-2.83-2.83a7.79 7.79 0 0 0-2.04.23v6.89c0 2.38.07 6.53.29 8.5h-5.94c.22-1.89.3-5.1.3-8.13v-2.69c0-3.06-.08-6.38-.44-8.13 2.83 0 6.96-.14 8.78-.14 3.19 0 7.48.65 7.48 5.44.03 1.87-.94 3.61-2.54 4.59-.29.21-.29.36 0 .79 2.04 3.06 4.5 6.46 6.75 8.86-1.43.3-2.86.47-4.3.5"/></g></g></g><g id="Furama"><path class="st2" d="M32.11 42.54h6.96v-.7h-1.6V28.77c2.44 0 2.76 2.51 2.79 5.49h.49V23.01h-.49c-.11 2.82-.35 5.07-2.79 5.07V16.01h.65c3.57 0 4.74 2.75 4.95 7.23h.57l-.16-7.93H32.11v.7h1.3v25.83h-1.3v.7zm19.6-6.81c0 4.37 1.65 7.35 5.25 7.35 4.01 0 5.33-2.71 5.33-7.35V17.32c0-1.04.35-1.31 1.35-1.31v-.7h-3.47v.7c1.08 0 1.46.27 1.46 1.74v18.21c0 3.36-.95 5.96-3.17 5.96-1.98 0-2.71-1.89-2.71-4.91v-21h1.41v-.7h-6.82v.7h1.35v19.72zm24.14-19.72h.79c2.68 0 2.79 2.51 2.79 5.68 0 5.14-1.06 5.72-3.57 5.92v-11.6zm-5.36 26.53h6.74v-.7h-1.38V28.31c2.36 0 2.79 1.43 2.84 3.67l.11 5.14c.05 2.59.6 5.72 3.38 5.72 1.11 0 2.17-.39 2.57-.7l-.22-.73c-.19.12-.41.27-.6.27-.65 0-.97-.5-.97-2.94v-1.97c0-6.42-1.25-8.27-5.55-8.74v-.08c3.03-.23 6.39-1.82 6.39-6.46 0-4.6-2.95-6.19-6.17-6.19h-7.15v.7h1.3v25.83h-1.3v.71zm26.64-8.9h-3.65l1.76-9.55h.06l1.83 9.55zm-7.09 8.9h3.6v-.7c-.38 0-1.43-.04-1.43-.89 0-.35.22-1.55.51-3.05l.65-3.56h3.9l1.38 7.5h-1.3v.7h6.58v-.7h-1.19l-4.98-26.53h-1.3l-4.82 24.9c-.22 1.16-.68 1.62-1.6 1.62v.71zm19.65 0h3.55v-.7c-1.22 0-1.46-.31-1.46-3.63V16.47h.05l4.55 26.06h.89l4.47-25.83h.05v25.13h-1.46v.7h6.66v-.7h-1.3V16.01h1.3v-.7h-5.47l-3 16.9h-.05l-3-16.9h-5.63v.7h1.3v22.2c0 3.33-.19 3.63-1.43 3.63v.7zm29.83-8.9h-3.65l1.76-9.55h.05l1.84 9.55zm-7.1 8.9h3.6v-.7c-.38 0-1.43-.04-1.43-.89 0-.35.22-1.55.51-3.05l.65-3.56h3.9l1.38 7.5h-1.3v.7h6.58v-.7h-1.19l-4.98-26.53h-1.3l-4.82 24.9c-.22 1.16-.68 1.62-1.6 1.62v.71z"/><path class="st2" d="M25.27 15v7.76h-6.33s-2.38-.33-2.38 4.24c0 0 1.24-2.29 2.43-2.29h6.09v4.91h-6.57s-1.91.1-1.91 1.38v15.72h130.71v.78H10.86V31c0-1.28-1.91-1.38-1.91-1.38H2.38v-4.91h6.09c1.19 0 2.43 2.29 2.43 2.29 0-4.57-2.38-4.24-2.38-4.24H2.19V15h6.52c.76 0 1.71.52 3.19 2.29s1.31 3.32 1.31 3.32v26.11h.98l-.02-25.58s-.1-2.09 1.38-3.86 2.44-2.29 3.19-2.29h6.53z"/></g></svg>