<svg version="1.1" id="Layer_1" xmlns="http://www.w3.org/2000/svg" x="0" y="0" viewBox="0 0 378.7 62.5" xml:space="preserve"><style>.st0{display:none}.st1{display:inline}.st2{fill:#fff}</style><g id="HBO" class="st0"><g class="st1"><path class="st2" d="M143.7 24.2h-10.2V2.6h-16.2v58.1h16.2V38.1h10.2v22.6h15.8V2.6h-15.8zm88.2-22.6c-16.4 0-24.7 11.9-26.7 16.8 0-7.2-7.2-15.8-15.5-15.8h-27v58.1h25.1c10.2 0 17.4-8.7 17.4-16.4 2.3 4.7 10.3 16.6 26.7 16.6 16.2 0 29.4-13.5 29.4-29.8 0-16.6-13.2-29.5-29.4-29.5zm-46.1 45.5h-8v-9.8h8c2.3 0 4.2 2.3 4.2 4.8 0 2.8-1.8 5-4.2 5zm0-21.9h-8v-9.7h8c2.3 0 4.2 2.3 4.2 4.9 0 2.5-1.8 4.8-4.2 4.8zm16.7 10.3c-1.3-1.9-4.2-4.1-6.1-4.5 1.9-.1 4.9-2.3 6.1-3.6-.4 1.7-.4 6.6 0 8.1zm29.4 10.4c-8.2 0-14.8-6.6-14.8-14.8 0-8.1 6.6-14.8 14.8-14.8 8.1 0 14.8 6.6 14.8 14.8-.1 8.2-6.7 14.8-14.8 14.8z"/><path class="st2" d="M231.9 19.5c-6.5 0-11.6 5.1-11.6 11.6s5.2 11.6 11.6 11.6c6.3 0 11.6-5.2 11.6-11.6s-5.3-11.6-11.6-11.6z"/></g></g><g id="Suntory" class="st0"><g id="layer1" class="st1"><g id="g47705"><path id="path47707" class="st2" d="M165.5 40.6h-6.1c.2-2 .3-5.1.3-8.1v-2.7c0-3-.1-6.4-.4-8.1h3.5c1.3 0 2 .4 2.2 1.3 1.5-1.1 3.4-1.8 5.3-1.7 6.5 0 7.3 3.9 7.3 6.8v5.3c0 2.4.1 4.8.3 7.3h-3.6c-1.7 0-2.5-1-2.5-2.7v-7.7c0-3.1-.3-5.4-4.1-5.4-.8 0-1.7.1-2.5.4v6.8c0 2.4 0 6.5.3 8.5m-18.1-19h6.1c-.2 2-.3 5.1-.3 8.1v2.7c0 3.1.1 6.4.4 8.1h-3.5c-1.3 0-2-.4-2.2-1.3-1.5 1.2-3.4 1.8-5.3 1.8-6.5 0-7.3-3.9-7.3-6.8v-5.3c0-2.4-.1-4.9-.4-7.3h3.6c1.7 0 2.5 1 2.5 2.7V32c0 3.1.3 5.4 4.1 5.4.8 0 1.7-.1 2.5-.4v-6.8c.1-2.5 0-6.6-.2-8.6m-17.2 4.5c-1.1-1-3.1-1.6-5.1-1.6-1.4 0-3.2.2-3.2 1.9 0 1.2 1.4 1.8 3.6 2.6 2.5 1 5.5 2.2 5.5 5.7 0 5.7-6 6.4-8.9 6.4-1.6 0-3.1-.1-4.6-.5-1.3-.4-1.6-.9-1.6-2.7v-2.1c1.5 1 3.8 1.5 5.7 1.5 2.3 0 3.5-.7 3.5-2.1 0-1.4-1.2-1.9-4.5-3.1-2.2-.9-4.6-2-4.6-5.3 0-4.8 5.4-6 8.7-6 1.6 0 3.1.2 4.6.8.9.4.9.9.9 2.1v2.4z"/></g><g id="g47709"><path id="path47711" class="st2" d="M204.5 31c0 4.4 1.5 6.3 4.5 6.3 2.9 0 4.3-2 4.3-6.3s-1.4-6.4-4.3-6.4c-3 0-4.5 2.1-4.5 6.4m14.4-.1c0 6.3-3.6 10.2-10.2 10.2-6.5 0-9.9-3.6-9.9-10S202.4 21 208.9 21s10.1 3.5 10 9.9m-23.8-9.3c1.1 0 2.3-.1 3.4-.2-.2.9-.5 1.9-.9 2.8-.5 1.1-1.2 1.4-3.7 1.4h-2.2v6.5c0 2.4.1 6.5.3 8.5h-6.2c.2-2 .3-6.1.3-8.5v-6.5h-1.9c-1.7 0-3.1.2-3.8.6v-2.5c0-1.5.3-2.1 2.5-2.1h12.2z"/></g><g id="g47713"><path id="path47715" class="st2" d="M255 35.1v.4c0 1.7.1 3.4.3 5.1h-6.2c.2-1.7.3-3.4.3-5.1v-.4c0-.8-.2-1.6-.9-2.9-1.4-2.8-4.4-8.1-7-10.5 1.3-.1 2.7-.2 4.1-.2 2.4 0 3.1.8 3.7 1.7 1.2 2.1 2.2 4.2 3.2 6.5.9-2.2 2-4.3 3.1-6.4.6-.9 1.4-1.8 3.4-1.8 1.2 0 2.4.1 3.6.2-1.9 1.7-5.4 7.6-6.9 10.2-.5 1-.7 2.1-.7 3.2m-15.5 6.6c-2.3 0-2.8-.9-4.3-3-.8-1.2-3.3-5.4-3.8-6.3-.2-.4-.3-.8.2-1 1.9-1.1 2.4-2.2 2.4-3.6 0-1.5-.7-2.8-2.8-2.8-.7 0-1.4.1-2 .2v6.9c0 2.4.1 6.5.3 8.5h-5.9c.2-1.9.3-5.1.3-8.1v-2.7c0-3.1-.1-6.4-.4-8.1 2.8 0 7-.1 8.8-.1 3.2 0 7.5.6 7.5 5.4 0 1.9-.9 3.6-2.5 4.6-.3.2-.3.4 0 .8 2 3.1 4.5 6.5 6.8 8.9-1.7.2-3.2.3-4.6.4"/></g></g></g><g id="Furama" class="st0"><g class="st1"><path class="st2" d="M146.7 42.5h7v-.7H152v-13c2.4 0 2.8 2.5 2.8 5.5h.5V23h-.5c-.1 2.8-.4 5.1-2.8 5.1V16h.7c3.6 0 4.7 2.8 4.9 7.2h.6l-.2-7.9h-11.4v.7h1.3v25.8h-1.3v.7zm19.6-6.8c0 4.4 1.6 7.3 5.2 7.3 4 0 5.3-2.7 5.3-7.3V17.3c0-1 .3-1.3 1.3-1.3v-.7h-3.5v.7c1.1 0 1.5.3 1.5 1.7V36c0 3.4-1 6-3.2 6-2 0-2.7-1.9-2.7-4.9V16h1.4v-.7h-6.8v.7h1.4l.1 19.7zM190.4 16h.8c2.7 0 2.8 2.5 2.8 5.7 0 5.1-1.1 5.7-3.6 5.9V16zM185 42.5h6.7v-.7h-1.4V28.3c2.4 0 2.8 1.4 2.8 3.7l.1 5.1c.1 2.6.6 5.7 3.4 5.7 1.1 0 2.2-.4 2.6-.7l-.2-.7c-.2.1-.4.3-.6.3-.6 0-1-.5-1-2.9v-2c0-6.4-1.2-8.3-5.6-8.7V28c3-.2 6.4-1.8 6.4-6.5 0-4.6-2.9-6.2-6.2-6.2h-7v.7h1.3v25.8H185v.7zm26.7-8.9H208l1.8-9.5h.1l1.8 9.5zm-7.1 8.9h3.6v-.7c-.4 0-1.4 0-1.4-.9 0-.3.2-1.5.5-3l.7-3.6h3.9l1.4 7.5H212v.7h6.6v-.7h-1.2l-5-26.5H211l-4.8 24.9c-.2 1.2-.7 1.6-1.6 1.6v.7zm19.6 0h3.6v-.7c-1.2 0-1.5-.3-1.5-3.6V16.5h.1l4.6 26.1h.9l4.5-25.8h.1v25.1H235v.7h6.7v-.7h-1.3V16h1.3v-.7h-5.5l-3 16.9h-.2l-3-16.9h-5.6v.7h1.3v22.2c0 3.3-.2 3.6-1.4 3.6l-.1.7zm29.9-8.9h-3.6l1.8-9.5h.1l1.7 9.5zm-7.1 8.9h3.6v-.7c-.4 0-1.4 0-1.4-.9 0-.3.2-1.5.5-3l.6-3.6h3.9l1.4 7.5h-1.3v.7h6.6v-.7h-1.2l-5-26.5h-1.3l-4.8 24.9c-.2 1.2-.7 1.6-1.6 1.6v.7z"/><path class="st2" d="M139.8 15v7.8h-6.3s-2.4-.3-2.4 4.2c0 0 1.2-2.3 2.4-2.3h6.1v4.9H133s-1.9.1-1.9 1.4v15.7h130.7v.8H125.4V31c0-1.3-1.9-1.4-1.9-1.4h-6.6v-4.9h6.1c1.2 0 2.4 2.3 2.4 2.3 0-4.6-2.4-4.2-2.4-4.2h-6.3V15h6.5c.8 0 1.7.5 3.2 2.3 1.5 1.8 1.3 3.3 1.3 3.3v26.1h1V21.1s-.1-2.1 1.4-3.9c1.5-1.8 2.4-2.3 3.2-2.3l6.5.1z"/></g></g><g id="Isetan" class="st0"><g class="st1"><path class="st2" d="M153.8 57.1c-.5-.1-1-.2-1.4-.3-3.9-1-6.3-3.6-7.5-7.4-.3-1.1-.4-2.2-.6-3.4 0-.2 0-.3.2-.4 2.1-.8 4.1-1.5 6.2-2.3h.1c0 .5.1 1 .1 1.5.1 1.3.3 2.7.9 3.9.4 1 1.1 1.8 2.2 2.1.8.2 1.6.2 2.4 0 1-.3 1.5-1.1 1.7-2.1.3-1.4.1-2.7-.7-3.9-.9-1.4-2-2.6-3.2-3.6-1.3-1.1-2.6-2.2-3.8-3.3-2.2-1.9-4-4.1-5-6.9-2.2-6 1.7-11.4 7-12.7 4.2-1 8.1.8 10.3 4.7.4.6.7 1.2 1 1.9.4.8.9 1.5 1.7 2-2.4.9-4.6 1.8-6.9 2.6-.3-.9-.5-1.8-.8-2.7-.2-.6-.6-1.2-1-1.6-.8-.8-1.7-1.2-2.8-.9-1.2.4-2 1.2-2.2 2.4-.3 1.7.3 3.2 1.3 4.6 1 1.3 2.2 2.2 3.5 3.2 1.6 1.1 3.1 2.2 4.5 3.6 1.5 1.5 2.8 3.2 3.5 5.3 2.1 5.8-1.8 12.4-7.8 13.5-.3.1-.7.1-1 .2h-1.9zm-9.9-1.1h-28.2v-.1c1.9-1.1 3-2.8 3.8-4.8.8-2 1.3-4 1.5-6.1.1-1 .1-2.1.1-3.1v-31c0-.9-.1-1.7-.4-2.6-.4-1.2-1.1-2.2-2.2-3h22.4c-.3.3-.8.7-1.1 1.1-1 1.3-1.4 2.8-1.4 4.4 0 10.8-.1 21.6 0 32.4 0 3.3.8 6.6 2.4 9.5.7 1.4 1.7 2.5 3.1 3.3zM129.7 9.2c-2.8 0-5.1 2.2-5.1 5s2.2 5 5 5.1c2.8 0 5.1-2.2 5.1-5 .1-2.9-2.1-5.1-5-5.1zm124.6 26.5V18.6h8.6c-1 .8-1.1 2-1.1 3.1v34c0 .3-.1.4-.4.4h-6.7c-.3 0-.4-.1-.5-.4-1.6-5.4-3.3-10.9-5-16.3 0-.1-.1-.2-.1-.4h-.1v17h-7.4V18.6h7c.3 0 .4.1.5.4 1.7 5.5 3.3 10.9 5 16.4.1.1.1.2.2.3zM213.4 56c2.1-12.5 4.1-24.9 6.2-37.4h11.7c-.9 1.3-.6 2.8-.4 4.2.4 2.9.9 5.7 1.4 8.5.4 2.7.9 5.3 1.3 8 .5 2.8.9 5.6 1.4 8.4.4 2.6.9 5.3 1.3 7.9v.3h-7.2c-.3 0-.4-.1-.4-.4-.2-2-.5-4.1-.7-6.1 0-.4-.1-.7-.1-1.1 0-.2-.1-.3-.3-.3h-5.1c-.2 0-.3.1-.3.3-.2 2-.5 4-.7 6-.1.4-.1.9-.2 1.3 0 .2-.1.3-.3.3h-7.2c-.2.1-.3.1-.4.1zm11.5-30.6h-.1c-.7 5.5-1.4 11.1-2.1 16.6h4.3c-.7-5.5-1.4-11.1-2.1-16.6zm-34.6-6.8l-.2.2c-.8.6-1 1.4-1 2.3 0 1.1-.1 2.3 0 3.4 0 .3-.1.4-.4.4h-10.1c-.5 0-.5 0-.5.5v7.5c0 .4.1.5.5.5h8.5v6.3h-9v10h11V56h-17.9c-.5 0-.5 0-.5-.5V19.1c0-.5 0-.5.5-.5h19.1zm23.6 0c-.2.2-.3.4-.5.6-.6.7-.8 1.5-.8 2.4v3.2h-5.9c-.6 0-.6 0-.6.5v30.6h-7.4V25.2c0-.3-.1-.4-.4-.4h-5.9v-6.3c7.2.1 14.3.1 21.5.1z"/></g></g><g id="OCBC" class="st0"><g class="st1"><path class="st2" d="M120.4 42.2h18.9l.1-.1c-6.7-.3-13.3-.5-20-.8v-.1h21.1v-.1c-7.3-.3-14.7-.7-22-1h8.8c2.5 0 4.9-.4 7.1-1.5 2.6-1.2 4.2-3.2 4.6-6.1.6-3.9-1.9-7.6-5.7-8.6-1.4-.4-2.8-.4-4.2.1-.1 0-.3 0-.4-.1-1.7-1.9-3.5-3.8-5.2-5.7v-.1c5.4-3.4 14.3-3.3 19.9 3.5 5.6 6.8 4.3 16.9-2.8 22.1-6.9 5-15.7 3.3-20.2-1.5zm71.9-11.5c.1 0 .1.1.2.1 1.9.5 3.2 2.6 2.3 4.9-.6 1.4-1.6 2.2-3 2.7-1.2.5-2.4.6-3.7.6-1.6 0-3.2 0-4.8-.1h-.4V23.5h7.2c.8 0 1.6.2 2.4.5 1.4.5 2.2 1.6 2.3 3.1.1 1.5-.7 2.6-2 3.3-.2.1-.3.2-.5.3zm-5.5 3.5v1.6c0 .1.1.3.2.3h2.1c.3 0 .6-.1.9-.3.7-.4 1-1 1-1.8-.1-.8-.5-1.2-1.2-1.4-.9-.3-1.9-.3-2.8-.2-.1 0-.2.2-.2.3v1.5zm0-8v3.5h1.7c.4-.1.9-.2 1.3-.3.7-.3 1.1-1 1-1.7-.1-.6-.5-1.1-1.3-1.2-.9-.2-1.8-.2-2.7-.3zm-27.7-3.1c1.2 0 2.4.2 3.5.7 1.7.7 2.9 1.9 3.5 3.5.9 2.4.9 4.9-.1 7.2-1.1 2.6-3.2 4-6 4.5-1.5.3-3 .2-4.5-.3-2.1-.6-3.5-1.9-4.2-3.9-.7-2-.8-4.2-.2-6.2 1-3.1 3.2-4.8 6.3-5.4.6 0 1.2 0 1.7-.1zm3.7 8.1c-.1-.6-.1-1.3-.3-1.9-.3-1.1-.9-2-2-2.5-2-.8-4.5-.1-5.3 2.4-.5 1.6-.4 3.2.2 4.7.3.7.7 1.3 1.4 1.7 1.5.9 4.2.7 5.4-1.5.4-1 .5-1.9.6-2.9zm59.9-.5c.2.1.3.1.4.1 1.6.5 2.7 2 2.5 3.7-.2 2.2-1.5 3.6-3.8 4.2-.9.2-1.9.3-2.8.3-1.3 0-2.5 0-3.8-.1h-.6V23.4h6.4c.7 0 1.3.2 1.9.4 1.4.5 2.2 1.5 2.3 3 .1 1.6-.6 2.8-2 3.6-.1.1-.3.2-.5.3zm-5.1 1.4v4.4c1.1.1 2.1.2 3.1-.2.6-.2 1.2-.6 1.4-1.2.4-1.1.1-2.4-1.5-2.8-.9-.2-1.9-.2-3-.2zm0-2.2c.9 0 1.9.1 2.8-.2.2-.1.5-.2.7-.3.7-.5.9-1.2.8-2-.1-.8-.6-1.2-1.3-1.5-1-.3-2-.1-3-.1v4.1zm-9.4-2.9c-1.1-.3-2.2-.5-3.4-.4-1.9.1-3.2 1.2-3.7 3.1-.2 1.1-.2 2.3.1 3.4.4 1.7 1.7 2.7 3.5 2.8 1.2.1 2.4-.1 3.6-.5l.3 1.8c.1.3.1.7.1 1.1 0 .1-.1.3-.2.3-2.5.7-5 .8-7.5 0-2.2-.8-3.5-2.3-4-4.5-.5-2-.4-4 .3-6 1-2.6 3-4.1 5.7-4.6 1.7-.3 3.4-.3 5.1.1.5.1.5.1.4.6-.1.9-.2 1.9-.3 2.8zm-28.4 0c-1.1-.3-2.3-.5-3.4-.4-2.1.1-3.5 1.5-3.8 3.5-.1 1-.1 1.9.1 2.8.4 1.8 1.7 2.8 3.5 2.9.6 0 1.2 0 1.8-.1s1.2-.2 1.8-.4l.3 1.8c.1.3.1.7.1 1.1 0 .1-.1.3-.2.3-2.4.6-4.9.8-7.3 0-2.2-.7-3.6-2.2-4.2-4.4-.5-2-.4-4 .2-5.9 1-2.7 3-4.2 5.8-4.8 1.7-.3 3.4-.2 5.1.1.5.1.5.1.4.6.1 1-.1 2-.2 2.9zm78.7 5.8c1.5 2 2.9 4 4.4 6.1h-3.4c-.2 0-.4-.1-.5-.3-1.1-1.6-2.1-3.3-3.2-4.9-.1-.1-.1-.2-.3-.3v5.5h-2.9V22.2h2.9v10c.1-.2.2-.3.3-.4 1-1.4 2-2.8 3-4.1.1-.2.3-.3.5-.3h3.4c-1.5 1.9-2.8 3.7-4.2 5.4z"/><path class="st2" d="M132.3 36.3h-15.7c-.9-2.6-1.1-5.3-.6-8 1 .3 1.9.7 2.8 1 1.4.5 2.9 1 4.4 1.5.2.1.3.2.3.5 0 1.6.5 3.1 1.5 4.5.1.1.1.2.2.2-.2-.7-.5-1.5-.8-2.3-.2-.8-.2-1.6-.1-2.5.2 0 .3.1.4.1 2.4.8 4.9 1.7 7.3 2.6.2.1.3.2.3.5v1.9zm95.7-5.8c-.1-.8-.2-1.6-.3-2.5.8-.2 1.7-.4 2.5-.5 1.2-.2 2.5-.2 3.7.1 1.9.4 2.8 1.5 2.8 3.5V39h-2.8c0-.6.1-1.1.1-1.7-.1 0-.1.1-.1.1-1 1.5-2.4 2-4.2 1.9-.3 0-.6-.1-.9-.2-1.4-.5-2.1-1.8-1.8-3.3.2-1.1.8-1.9 1.7-2.5.9-.6 2-.9 3.1-1 .6-.1 1.2-.1 1.9-.2v-1c-.1-.9-.7-1.3-1.8-1.3-1.3-.1-2.6.2-3.8.8 0-.2 0-.2-.1-.1zm5.7 3.4h-1c-.7.1-1.4.1-2.1.5-.7.4-.9 1.1-.7 1.8.2.6.8.9 1.6.7 1.4-.2 2.3-1.5 2.2-3zm8.8 5h-2.9V27.5h2.8c0 .6-.1 1.3-.1 1.9.1-.1.2-.2.2-.3.8-1.2 2-1.8 3.4-1.9.5 0 .9 0 1.4.1 1.3.3 2.1 1.2 2.3 2.6 0 .3.1.6.1 1v7.9h-2.9v-7.1c0-.3 0-.6-.1-.8-.2-1-.9-1.4-1.8-1.2-.7.1-1.2.6-1.6 1.1-.5.8-.8 1.6-.8 2.6v5.5zM118.2 22.8c2.2 1.4 4.4 2.7 6.5 4-.3.6-.6 1.2-.8 1.8-.2.6-.3 1.2-.5 1.9-2.4-.9-4.8-1.8-7.2-2.8.4-1.8 1-3.4 2-4.9zm7 3.5c-2.2-1.4-4.3-2.8-6.4-4.3 1-1.4 2.3-2.6 3.8-3.6 1.8 1.9 3.7 3.8 5.5 5.7-1.2.6-2.1 1.3-2.9 2.2zm7.1 7.5c-2.7-1-5.3-2-7.9-3 .2-1.1.8-2.5 1.5-3.3.1 0 .2.1.2.1 2 1.2 3.9 2.5 5.9 3.7.2.1.3.3.3.6v1.9zm-15.5 3.1h4.5c.1 0 .3.1.4.2.3.5.8.7 1.4.7h6c-.3.3-.6.5-.8.8-.4.6-.9.7-1.6.7h-7.2c-.2 0-.3 0-.4-.3-.3-.7-.8-1.1-1.6-1.2-.2 0-.4-.1-.4-.4-.1-.1-.2-.3-.3-.5zm15.5-5.8c-2.1-1.4-4.1-2.7-6.1-4.1l.7-.7 1.8-1.2c.2-.1.3-.1.4.1l3 3c.1.1.1.2.1.3.1.8.1 1.7.1 2.6z"/></g></g><g id="SATS" class="st0"><g class="st1"><path class="st2" d="M190.4 62.1h-2.5c-1.1-.1-2.1-.2-3.2-.3-3.2-.5-6.3-1.4-9.2-2.8-4-2-7.4-4.6-10.3-8.1-4.2-5.1-6.6-10.9-7-17.5 0-.5-.1-.9-.1-1.4v-1.4c0-.1 0-.3.1-.4.1-1.8.3-3.5.7-5.3 1.2-5.5 3.7-10.4 7.6-14.5 5.4-5.7 12-9 19.9-9.8 3.5-.3 6.9-.1 10.3.7 5.6 1.3 10.6 4 14.7 8.1 5.5 5.4 8.5 11.9 9.2 19.6.2 2.2.1 4.3-.2 6.5-.4 2.8-1.1 5.4-2.2 8-2.3 5.3-5.8 9.6-10.5 13-2.6 1.8-5.4 3.3-8.4 4.2-2.4.8-4.9 1.3-7.5 1.5-.6-.2-1-.1-1.4-.1zm-6-33.5c.3-.2.6-.4.9-.5 1.5-.7 3.1-.8 4.8-.5.4.1.8.2 1.1.4.5.3.4.9-.1 1.1-.2.1-.3.1-.5.1-1 .1-1.9.2-2.9.3-1 .1-2 .2-3 .6-1 .4-1.8.9-2.1 2-.5 1.6 0 3.5 2 4.5.9.4 1.9.6 2.8.7 1.6.1 3.2-.1 4.6-.8 1.4-.6 2-1.6 2-3.1v-5.2c-.2-1.1-.9-1.9-1.9-2.5-1-.5-2-.7-3.1-.7-1.6-.1-3.1.2-4.5.8-.6.2-1.2.6-1.8.9.7.7 1.2 1.3 1.7 1.9zm-5 0c.5-.6 1-1.2 1.6-1.9-.1-.1-.2-.1-.3-.2-2.1-1.2-4.4-1.8-6.8-1.5-1.1.1-2.1.5-3 1.1-1.9 1.5-1.3 3.9 0 4.8.5.3 1 .5 1.5.7 1.3.4 2.6.4 4 .5.6 0 1.3.1 1.8.4.7.4.8 1.1.2 1.6-.3.2-.6.4-1 .5-1.5.4-3.1.3-4.5-.2-.6-.2-1.1-.5-1.7-.7-.5.6-1 1.2-1.5 1.9.6.3 1.1.6 1.6.8 2.1.9 4.2 1 6.4.6.9-.2 1.7-.5 2.4-1.1.9-.8 1.2-1.8 1.1-3-.1-1.2-.5-2.1-1.6-2.6-.8-.4-1.7-.6-2.6-.7-1-.1-2.1-.2-3.1-.3-.5-.1-.9-.2-1.3-.4-.2-.1-.4-.2-.4-.5s.1-.5.4-.6c.2-.1.4-.2.6-.2 2.1-.3 4.2-.1 6.2 1zm26 7.1l.9.6c2.3 1.2 4.8 1.4 7.3.9 1.8-.4 3.2-1.5 3.3-3.4.1-1.4-.3-2.8-1.9-3.4-.7-.3-1.5-.5-2.3-.6-1-.2-2.1-.2-3.1-.3-.5-.1-1-.2-1.4-.4-.5-.2-.5-.7-.1-1 .2-.1.4-.3.7-.3 1.4-.3 2.9-.3 4.3.1.7.2 1.3.5 2 .8l1.5-1.8c-.1-.1-.2-.1-.3-.2-2.1-1.2-4.4-1.7-6.8-1.5-1.1.1-2 .4-2.9 1.1-1.3 1-1.6 2.4-.9 3.8.5.9 1.3 1.4 2.3 1.7 1.4.4 2.8.4 4.2.5.6 0 1.2.1 1.8.4.7.4.8 1.2.2 1.7-.3.2-.6.3-.9.4-1.5.4-3.1.3-4.5-.2-.6-.2-1.1-.4-1.7-.7-.7.6-1.2 1.2-1.7 1.8zm-1.1 0l-1.5-1.8-.2.2c-.4.4-.9.7-1.4.9-1.2.3-2.2-.2-2.5-1.3-.1-.3-.2-.7-.2-1.1v-3.8h4.9v-2.3h-4.9v-3c-.8.3-1.5.7-2.3 1-.2.1-.3.2-.3.4v7.5c0 .5 0 1 .1 1.5.2 1.4.9 2.6 2.3 3.2 1 .5 2.1.6 3.2.3 1.2-.4 2.1-.9 2.8-1.7z"/><path class="st2" d="M191.5 31.6v1.9c0 .5-.3.8-.7 1-.5.2-1 .3-1.5.4-1 .2-1.9.1-2.9-.1-.3-.1-.6-.2-.9-.4-.8-.5-.6-1.5.1-1.9.5-.3 1-.3 1.6-.4 1-.1 2.1-.1 3.1-.2l1.2-.3z"/></g></g><g id="Brother" class="st0"><g class="st1"><path class="st2" d="M115.3 14.6h6.2v9.6c.3-.3.6-.5.9-.7 1.2-1 2.5-1.8 4-2.3.9-.3 1.9-.4 2.9-.4 2.4.1 4.6.7 6.6 1.9 3.2 1.9 5.3 4.7 6.2 8.4.1.2.1.5.2.8 0 0 0 .1.1.1 0-.3.1-.6.1-.9.6-3.4 2-6.3 5-8.2 1.3-.9 2.8-1.4 4.3-1.8 1.5-.3 3-.4 4.5-.4h.1v4.9c3.9-4.3 8.7-5.9 14.4-4.4 5.6 1.9 8.7 5.8 9.7 11.6v-18h6.6v6.1c0 .3 0 .3.3.3h9.5c.3 0 .3 0 .3.3v5.3c0 .2 0 .2-.2.2h-9.7c-.2 0-.2.1-.2.2v9.1c0 2.2 1 3.9 2.9 5 .7.5 1.6.7 2.4.8 3 .3 5.7-1.7 6.4-4.6.1-.5.2-1 .2-1.6V15h6.5v8.3c.2-.2.4-.3.6-.4.7-.5 1.4-1.1 2.3-1.5.7-.4 1.5-.6 2.4-.7 2.4-.2 4.6.5 6.5 1.9 2.1 1.5 3.4 3.6 4.2 6 .3.9.4 1.7.5 2.6 0 .6.1 1.3.1 1.9v.3c.2-3.3 1.5-6.2 3.8-8.6s5.1-3.8 8.4-4.1c3.6-.3 6.9.6 9.7 2.8 2.9 2.2 4.5 5.2 5.1 8.8 0-.2 0-.3.1-.5.1-1.3.4-2.6.9-3.9 1.2-3.1 3.4-5.2 6.5-6.3 1.2-.5 2.4-.7 3.7-.9.9-.1 1.8-.1 2.7-.1.1 0 .2 0 .2.2v5.8h-.4c-2.4 0-4.5.7-6 2.6-.7.9-1.1 2-1.4 3.1-.1.7-.2 1.5-.2 2.2v13H249v-11h-21.1c.1.5.2 1 .4 1.5 1 2.4 2.7 3.9 5.2 4.6 2.4.7 4.7.2 6.7-1.4 1-.8 1.8-1.8 2.3-3 .1-.1.1-.2.2-.2h5.8c-.7 2.2-1.9 4.2-3.5 5.8-2.2 2.2-4.8 3.5-7.8 3.8-3.9.5-7.4-.6-10.4-3.1s-4.6-5.8-4.9-9.7v12.5H216V32.1c0-2.2-1-4-2.9-5.1-.9-.5-1.8-.7-2.8-.6-1.9.2-3.2 1.2-4.1 2.8-.5.9-.7 1.8-.7 2.9v15.2H199v-2c-.2.1-.2.2-.4.3-1.3 1-2.8 1.7-4.5 1.9-1 .2-2.1.2-3.1.1-2.3-.3-4.4-1.1-6.2-2.7-1.8-1.5-3-3.3-3.7-5.5-.3-.9-.5-1.8-.6-2.7 0-.4 0-.7-.1-1.1-.6 4.5-2.8 8-6.8 10.3-3.9 2.3-8.1 2.5-12.3.6-3.8-1.7-6.4-4.7-7.5-8.7s-.5-7.8 1.8-11.4h-.1c-2.1 0-4 .7-5.4 2.4-.8.9-1.3 2-1.5 3.2-.2.8-.2 1.6-.2 2.4v12.9h-6.2V36.9h-.1c0 .1 0 .2-.1.2-.5 2.2-1.5 4.1-2.9 5.8-1.8 2.1-4.1 3.5-6.8 4.3-.8.2-1.6.3-2.4.4-2.5.2-4.9-.3-7.1-1.4-3.4-1.7-5.7-4.4-6.9-8-.3-1-.5-1.9-.6-2.9 0-.3-.1-.5-.1-.8.1-6.5.1-13.2.1-19.9zM129 26.4c-4.2 0-7.7 3.3-7.7 7.7 0 4.3 3.5 7.7 7.7 7.7s7.7-3.3 7.7-7.7-3.6-7.7-7.7-7.7zm38 0c-4.2 0-7.7 3.4-7.7 7.6-.1 4.4 3.5 7.8 7.7 7.8s7.8-3.4 7.8-7.8c-.1-4.2-3.6-7.6-7.8-7.6zm75.8 4.8c-.9-3-4.2-5.9-8.6-5.2-2 .3-3.6 1.3-4.8 2.8-.6.7-1 1.5-1.3 2.4h14.7zm20.5 13.9c-.1.3-.1.6-.2.8-.4 1-1.1 1.7-2.2 1.8-1.5.3-2.9-.7-3.3-2-.5-1.7.6-3.4 2.3-3.7 1.6-.2 3 .8 3.3 2.3 0 .1.1.2.1.4v.4zm-3 2.2c1.2 0 2.4-1 2.4-2.4s-1.1-2.4-2.4-2.4c-1.3 0-2.4 1-2.4 2.4 0 1.5 1.3 2.4 2.4 2.4z"/><path class="st2" d="M261.3 44.9c.1.1.2.2.3.4.1.2 0 .3.1.5 0 .2 0 .5.1.7h-.6c-.1 0-.1-.1-.1-.2v-.7c0-.3-.1-.5-.4-.5h-.7c-.1 0-.1 0-.1.2v1c0 .1 0 .2-.2.2h-.5v-3.4h1.9c.5 0 .8.3.8.8-.1.5-.1.6-.6 1zm-1-1.2h-.5c-.1 0-.1 0-.1.1v.7s0 .1.1.1h1c.2 0 .4-.3.3-.6 0-.2-.2-.3-.5-.3h-.3z"/></g></g><path class="st2" d="M20.5 18.6c-.2.7-.3 1.4-.5 2-.9 1.8-1 3.8-1.6 5.7-.5 1.9-1.4 3.8-2.2 5.6-.1.2-.5.4-.8.4-.2 0-.5-.3-.5-.5-.6-1.5-1.3-3-1.9-4.5-.7-1.7-1.3-3.5-1.8-5.3-.6-2-.7-4.2-1.7-6.1C8.4 13.7 8.6 11 6.8 9 5.6 7.8 4.5 6.5 3.3 5.3c-.5-.4-1.3-.5-2-.7C.7 4.4.2 4.1.1 3.5 0 2.8.1 2.4.8 2.2L2 1.9c1-.2 2-.5 3-.6.7-.1 1.4 0 2 .2 1.5.4 3 .7 4.6.4.3-.1.5-.3.8-.3.5 0 1 0 1.4.2.7.5 1.4.6 2.2.4 2.6-.5 5.2-1 7.9-.6.3.1.5 0 .8 0 2.3.2 4.5.4 6.8.2 2-.1 3.9-.5 5.9-.8 2.2-.4 4.4-.2 6.4.7 1.1.5 1.4 1.5.8 2.5-.5.8-1.1 1.5-2.2 1.5-1 0-2.4 1.4-2.8 2.6-.1.5-.2 1-.4 1.4-.1.3-.3.5-.6.7-1.2.9-2.1 2.1-2.2 3.6 0 1.1-.3 2.2-.9 3.1-.6.9-.7 1.8-.3 2.8.1.3.2.7 0 .9-.9 1.9-1.1 4.1-2.5 5.8-.4.5-.4 1.3-.7 1.9-.3.8-.5 1.7-.9 2.5-.2.4-.9.8-1.4.8-.4 0-.9-.6-1-1.1-1.3-3.8-2.5-7.6-3.7-11.4l-1.5-4.2c-.2-.4-.3-.9-.6-1.2-.9-.9-1-2-1.2-3.2-.2-.8-.5-1.7-.8-2.7-.3-.7-.7-1.3-1-2-.3-.8-.9-1.2-1.7-1.3-1.2-.1-2.2-.1-3.3-.2-.8-.1-1.3.4-1.5 1.1-.4 1.4-.5 2.7-.2 4.1.5 2 .8 4.1 1.4 6.1.3 1.1 1 2.1 1.7 3.1.3.5.8.6 1.2.2l1.2-1.2c.2-.2.4-.5.6-.7.2-.2.5-.2.7-.3.1.3.3.5.3.7.1.3 0 .6 0 .9.1.1.1.1.2.1zm7-10.2c-.1 0-.1.1-.2.1.3.8.5 1.7.8 2.5.4 1.4.9 2.7 1.2 4 .3 1.1.1 2.3.8 3.3.8 1 1.3 1.1 2.2.2 1.3-1.3 2-2.9 2.3-4.7.3-2 1.2-4 1-6.1-.1-1.6-.9-2.7-2.6-2.8-1.1-.1-2.2-.2-3.3-.2-1.2 0-1.8.5-2.1 1.6.1.7 0 1.4-.1 2.1zm187.8.4c-.2.7-.2 1.5-.5 2.1-.2.5-.7.8-1.1 1.2-.5.4-1 .7-1.5 1.1l-3.6 3c-.5.4-.3.8.1 1.1.6.5 1.2 1 1.8 1.6 1.3 1.4 2.1 3 2.5 4.8.2.6.5 1.2.7 1.7.1.3.4.5.4.8.2 1.4 1.2 1.7 2.2 2 .4.1.9-.3 1.4-.4.5-.2 1-.7 1.5-.1.4.6.3 1.2-.3 1.8-.5.6-1.1 1.1-1.6 1.7-.1.1-.3.3-.5.3-1.3.3-2.6.7-3.9.7-2.9-.2-5.5-2.3-5-5.9.1-.6 0-1.2-.1-1.8-.2-1.1-.3-2.2-.5-3.3-.1-.5-.4-.9-.5-1.4-.5-1.7-1.6-2.4-3.2-2.8-.3-.1-.5-.3-.7-.5-.7-.7-.6-1.2.3-1.5.8-.2 1.8-.3 2.6-.3.7 0 1.2-.2 1.7-.7 1.6-1.7 2.2-3.6 1.7-5.9-.3-1.4-1.4-2.3-2.6-2.9-1.4-.7-3-1.2-4.5-1.7-.5-.2-1.4 0-1.8.4-1.5 1.2-2.4 2.7-2.3 4.7 0 .5.3 1 .4 1.5.1.4.4.9.3 1.3-.2 1.1.2 2.1.5 3.2.1.3 0 .8 0 1.1-.2.9-.5 1.7-.5 2.6-.3 3-.5 6 0 9 .2 1.3 1.1 2.1 2.1 2.7.2.1.5.1.6.3.2.2.6.5.6.7 0 .3-.3.7-.6.7-.9.2-1.9.3-2.8.2-1-.1-2-.4-3.1-.2s-2.4.1-3.5.2c-.6.1-1.1.1-1.7.3-.7.2-2.4-.8-2.5-1.6 0-.2.3-.6.4-.6 1.4.2 2.1-.8 3.1-1.5 1-.8 1.3-1.7 1.3-2.9 0-3 .3-6 .3-9 0-2.2-.4-4.3-.3-6.5.1-2.1-.8-3.8-2-5.3-.7-.9-1.9-.8-3-.9-.7 0-1.1-.4-1.2-1-.1-.7 0-1.2.8-1.2 1.9-.1 3.8-.2 5.8-.2h6.2c1.1 0 2.4-.3 3.4 0 1.8.5 3.5.4 5.2 0 .6-.1 1 0 1.4.5 1 1.2 2.1 2.1 3.7 2.3.3 0 .7.4.9.6.7 1 1.7 2.2 1.5 3.9zm-128 22.9c.8-.7 1.3-1.7 2.6-1.8.8-.1 1.1-.8 1.2-1.4.3-2.7.6-5.3.7-8 .1-1.7-.5-3.4-1.4-4.9-.1-.2-.3-.4-.3-.6-.4-1.5-1.8-2.1-2.7-3-.2-.2-.8-.2-1.1-.2-1.3.2-2.4.5-3.1 2-.8 1.8-1.7 3.5-1.6 5.6.2 3 0 6.1.7 9 .2.7.5 1.3.6 2 .1.4 0 1-.2 1.2-.3.2-1.1.3-1.4.1-1.4-1.2-2.9-2.3-4.1-3.7-.5-.6-.3-1.8-.5-2.7-.1-.7-.4-1.3-.5-2-.2-.7-.4-1.4-.3-2.1.1-1.8.6-3.5 1.5-5.2.7-1.5 1.4-3 2.8-4 1.8-1.3 3.9-1.5 6-1.5.2 0 .3.2.5.3.3.1.6.2 1 .3.4.1.9.2 1.2.5.5.3.9.8 1.5.4.6-.5 1.4-.9 1.3-1.9-.1-.8 0-1.6-.1-2.3 0-.3-.1-.8-.3-.9-1.1-.8-2.2-1.6-3.3-2.3-.2-.2-.6-.2-.7-.4-.2-.4-.5-.9-.4-1.3.1-.4.7-.8 1.1-.8 1.9-.1 3.8-.2 5.7 0 1.9.2 2.6 1.1 2.8 3 .3 2.7-.1 5.4-.3 8-.1 1.4.1 2.9.1 4.3.1 3.2.3 6.5.3 9.7 0 1.1.4 1.9 1.3 2.5.3.2.7.4 1.1.4.6 0 1 .2 1.2.8.2.6.2 1.2-.3 1.7-.7.8-1.5.8-2.4.7-1.3-.2-2.5-.4-3.8-.7-.6-.1-1.1-.3-1.6-.7-.7-.5-1.5-.5-2.3-.3-.8.3-1.7.4-2.5.6v-.4zm52.1.6c-1.2.2-2.7.1-4.1-.7-.4-.2-1 0-1.6 0-.3 0-.6-.2-.8-.2.2-.3.2-.7.5-.9.8-.5 1.6-.8 2.4-1.2.4-.2.8-.6.9-1 .5-1.7 1-3.3.6-5.1v-.1c.5-2.3-.5-4.6-.4-7 .1-1.5-.5-2.7-2-3.2-.4-.1-.7-.4-1-.7-.4-.5-.4-1 .3-1.2 1.5-.6 2.4-1.9 3.1-3.3.6-1.1 1.1-2.2 1.7-3.3.2-.4.5-.9.9-1.1 1.5-.8 2.9-1.8 4.7-1.8 1.2 0 2.5.1 3.7.2 1.2.1 2.1.8 2.4 1.9.3 1.1.3 2.2-.5 3.1-1 1.1-2.7.9-4-.2-.5-.5-1.1-.8-1.8-1.1-.5-.2-.8.1-1 .7-.3 1.1-.7 2.2-.2 3.4.4.7.8 1.2 1.7 1.2.5-.1 1-.1 1.6 0 .6.1 1 .4 1 1.1-.1.6-.4.9-1 .9h-.6c-2.4 0-3.6 1-3.7 3.5-.2 2.9-.3 5.7-.4 8.6-.1 1.3.2 2.5.9 3.6.5.8.7 1.7.7 2.7-.1 1-.5 1.4-1.4 1.5-.8-.3-1.5-.3-2.6-.3zm100.1-10.5H232c-1.8 0-2.8 1.2-3 3-.3 2.3.9 3.9 2.3 5.5.3.3.8.5 1.2.5 1.9 0 3.8-.3 5.4-1.5.5-.4.9-1.1 1-1.7.4-1.3 1.6-2.5 3-2.7 1.1-.2 1.7.6 1.2 1.5-1.1 2-2.3 4-4.2 5.5-.2.2-.5.3-.7.3-1.7.2-3.4.5-5-.3-.5-.2-1.1-.3-1.7-.2-2.7.2-4.5-.9-6-3.2-1.4-2.1-2-4.3-2.5-6.7-.2-1.1 0-2.2.4-3.3.6-1.7.9-3.5 2.2-4.9.1-.1.1-.1.1-.2 1.4-.9 2.6-2.1 4.1-2.7 3.3-1.2 6.5-.5 9.6 1.2.5.3.9.8 1.3 1.3s.6 1 .9 1.5c1.6 1.9 1.6 4 .6 6.2-.3.6-.7.9-1.4.8-.3.1-.8.1-1.3.1zm-2.3-5.4c-.3-.8-.3-2.3-1.6-3.2-1-.7-2.2-1.1-3.6-.8-1.3.3-1.7.7-1.8 2-.1.4-.2.8-.5 1-.8.8-.9 3 .1 3.6.9.6 1.9.9 3.1.6.8-.2 1.6-.3 2.4-.5 1-.2 2.2-.8 1.9-2.7zm120.4 9.2c-.1.2-.1.4-.2.6-.8 1.4-1.7 2.8-2.6 4.1-1.8 2.4-4.3 3.3-7.2 2.8-1.6-.2-3.1-.7-4.6-1.3-.8-.3-1.3-1.2-2-1.8-.4-.4-.8-.7-1.1-1.2-.9-1.4-2-2.7-2.7-4.1-.4-.9-.4-2.1-.2-3.1.6-3.2 1.8-6.2 4.2-8.6 1.2-1.2 2.7-2.2 4.4-2.6.4-.1.9-.1 1.4-.1 2.4.2 4.8.5 7 1.9.3.2.6.4.8.7.7 1 1.2 2 1.9 3 .9 1.4.5 4.3-.3 5.4-.4.5-.7.7-1.4.4-1.1-.5-2.3-.7-3.6-.4-1.7.4-3.5.5-5.3.9-2.5.5-3.6 3.4-2.3 5.6.1.1.1.2.1.2.7.8 1.2 2.1 2 2.4 1.3.4 2.9.3 4.2.1 1-.2 1.8-1.1 2.7-1.7 1.1-.8 2.2-1.7 3.3-2.6.4-.3.9-.4 1.3-.6.1-.1.1 0 .2 0zm-14.3-9c0 .5 0 1 .1 1.5s.2 1.1.6 1.3c1.2.8 2.5 1.4 3.9.4.2-.1.4-.2.6-.2 2-.1 2.9-1.4 3.3-3.2.3-1.5-.2-2.6-1.1-3.5-1.4-1.5-4-1.3-5.3.2-.2.2-.4.5-.7.6-1.1.7-1.7 1.6-1.4 2.9zM161.5 30.5c2.7.4 4.4-1.2 5.9-3.4.4-.7 1-1.3 1.6-1.8.4-.3 1-.1 1.5-.2.1.5.3 1.1.1 1.4-1 2-2.3 4-4.1 5.4-1.1.8-2.5 1.1-3.8 1.1h-.2c-1.5-1.2-3.3-.9-5-1.1-1.9-.3-3.2-1.3-4.1-2.9-.3-.5-.5-1-.9-1.4-.8-.9-.9-2-1.1-3.1-.1-.7-.2-1.5-.6-2.1-.4-.8-.4-1.5-.2-2.2.6-2.2 1.5-4.3 2.9-6.1 1.7-2.2 3.9-3.9 6.9-3.7 2.3.2 4.7.4 6.7 1.8.2.2.5.3.6.5.9 1.5 1.9 3 2.5 4.7.5 1.3.1 2.8-.6 4-.2.3-.7.6-.9.6l-6-.9c-.6-.1-1.3-.3-2-.3-1.9.1-3.9 2.4-4.1 4.3-.2 1.7.4 3.1 1.4 4.4.6.8 1.2 1.4 2.3 1.2.3-.3.6-.2 1.2-.2zm-5-12.8c.2.3.3 1.1.7 1.3 1.7 1 3.4 1.5 5.4.4 2.1-1.1 2.5-2 1.8-4.2l-.3-.6c-.6-1.5-2.4-2.6-4-2.4-.3 0-.7.1-.9.3-1.4 1.3-2.5 2.8-2.7 5.2zm156.6-6.5c2.1-.1 4.2-.3 6.3-.4 1.4 0 2.8.3 4.2.3 1.6.1 3.2.1 4.7 0 1.6-.1 3.2-.3 4.8-.3.9 0 1.9 0 2.8.2 1.2.3 1.4.9.5 1.8-1 .9-2.1 1.7-3.1 2.6-.9.7-1.9 1.5-2.2 2.7-.1.2-.3.5-.4.6-1.6 1.6-2.2 3.7-2.7 5.8-.1.3-.1.6-.2.8-.9 1.9-1.5 3.9-2 6-.2.7-1.8 1.9-2.6 1.8-.3-.1-.8-.3-.9-.6-.6-1.2-1-2.5-1.5-3.8-.3-.8-.6-1.5-.8-2.3-.3-1.1-.6-2.2-.8-3.3-.3-1.7-.8-3.3-1.8-4.7-.4-.6-.8-1.1-1-1.7-.5-1.2-1.5-1.9-2.8-2.3-.5-.2-.9-.3-1.4-.5-.7-.4-1.2-.8-1-1.7.2-.8.7-1.1 1.7-1.1.2 0 .2 0 .2.1zm15.6 4.2c-.1-.3-.1-.6-.2-.9-.6-1-2.9-1.7-4-1.2-2.1 1-2.8 2.1-2.6 4.5v.6c.1 1.8.9 3.1 2.4 4 .5.3 1.4.2 1.7-.1.7-.6 1.1-1.5 1.5-2.4.3-.6.4-1.2.5-1.8.3-.8.5-1.7.7-2.7zM286.1 25c.8 1.1 1.2 2 .4 3.1-1 1.2-1.8 2.6-3 3.7-1.1 1.1-2.7 1-4.2.8-1.4-.2-2.7-.5-4.1-.6-2.9-.3-5.2-2.1-6-4.8-.2-.5-.2-1.2 0-1.7.2-.9.1-1.7-.4-2.4-1.3-2-1.1-4.1-.2-6.2.9-2 2.3-3.7 4-5.1 1-.8 2.2-1.1 3.4-1.2 2.7-.2 5.4 0 7.8 1.6.5.3.9.8 1.3 1.4.5.7 1 1.5 1.5 2.2 1.2 1.9.8 3.8-.1 5.7-.3.7-1 .5-1.6.5-2.3-.3-4.7-.6-7-.1-.9.2-1.8.2-2.7.3-1.2.1-2.4 1-2.4 2.2 0 1 .2 2.1.4 3.2.1.3.4.6.7.7.7.1 1 .4 1.2 1 .5 1.1 1.2 1.6 2.5 1.6 1.8-.1 3.6.1 5-1.3.9-.9 1.7-1.9 2.5-2.9.3-.8.6-1.2 1-1.7zm-8.8-12.8c-.4.1-.9.1-1.1.3-1.4 1.2-2.4 2.6-2.7 4.4-.3 1.6.2 2.4 1.8 2.8 2.1.5 4-.2 5.9-1.1.3-.2.6-.6.6-1-.1-2.9-1.1-5.2-4.5-5.4zm88.3 9.7c-1.4.4-2.1-.3-2.6-1.5-.5-1.1-1.1-2.2-1.7-3.3-.4-.7-.2-1.4.1-2 .3-.6.4-1.2.8-1.7.3-.5.7-1.1 1.2-1.5.9-.6 1.9-1.2 2.9-1.5 1.2-.4 2.5-.5 3.7-.6.4 0 .9.2 1.2.5 1.6 1.4 2.2 1.6 4.1.7 1.4-.6 1.9-.3 1.8 1.2-.1 1.8-.4 3.5-.7 5.2 0 .3-.1.5-.3.7-.2.2-.4.3-.7.5-.1-.2-.3-.4-.4-.6-.5-1.1-.7-2.4-1.5-3.3-2-2.5-5.3-3.5-8.3-1.4-1.1.8-.8 2.8.4 3.7.1.1.3.2.4.3 2.2.8 4.3 1.7 6.5 2.3 1.9.6 2.4.6 3.7 1.6 1.7 1.2 2.2 3 2 5-.1.7-.3 1.4-.5 2.1-.7 2.5-2.5 3.9-4.7 4.8-.4.2-.9.1-1.4.1-.8 0-1.6-.1-2.4-.2-.4-.1-.9-.2-1.2-.4-1.1-1-2.4-1-3.7-.5-.7.3-1.3.7-2 1.1-.4.2-.6.2-.8-.2-.4-.9-.6-1.7-.3-2.8.3-1 .2-2.1.3-3.2.1-.8 0-1.6.2-2.4.1-.4.6-.8.9-1.2.4.3.8.5 1 .9.5 1.1.9 2.2 1.5 3.3.3.6.7 1.2 1.2 1.6 1.2.8 2.5 1.5 3.8 2.1.3.2.8.1 1.2 0 .6-.1 1.3-.3 1.9-.5 1.9-.6 3-2.2 2.7-4.2-.1-.4-.2-.8-.5-1-.7-.6-1.4-1.2-2.2-1.5-2.1-.7-4.2-1.4-6.3-2-.3-.1-.8-.1-1.3-.2zm-104.5-4.4c.4.7.7 1.2 1 1.6 1.9 2.2 2.1 4.7 1.3 7.4-.1.4-.3.7-.3 1.1-.1 2.3-1.7 3.6-3.4 4.7-1 .7-2 .6-3-.4.7-.6 1.4-1.2 2.1-1.7.5-.4 1.1-.8 1.6-1.3 1.1-1.3.8-2.3-.5-3.3-2.3-1.7-4.9-2.1-7.6-2.8-.4-.1-.9-.1-1.4-.2-1.1-.2-1.9-.7-2.5-1.8-1.3-2.1-1.1-4.3-.9-6.5.1-.9.8-1.7 1.3-2.5.5-.7 1-1.2 1.6-1.8.3-.3.7-.5 1.1-.5 2.2-.2 4.3-.1 6.2 1.2.8.6 1.8.4 2.8.1.7-.3 1.4-.7 2.1 0 .7.7.9 1.5.6 2.4-.4 1-.8 2-1.1 2.8-.8-.5-1.5-.9-2.2-1.3-.8-.5-1.8-.8-2.4-1.5-1.1-1.1-2.3-1.2-3.7-.8-1.1.3-2.1.5-2.9 1.4-.6.7-.5 1.7.3 2.2 1.3.8 2.7 1.7 4 2.4 1.1.6 2.3.3 3.4-.1.8-.1 1.6-.4 2.5-.8zM69.9 11.8c.1 1.2.3 2.4.2 3.6 0 1.2-.2 2.5-.4 3.8 0 .2-.1.3-.1.5 0 3 .2 6 1.3 8.8.3.6.8 1.1 1.2 1.7.7.9.5 1.5-.6 1.8-1.1.3-2.3.4-3.4-.2-.8-.4-1.7-.5-2.6-.3s-1.9.3-2.9.3c-.8 0-1.1-.6-.5-1.2.5-.6 1.2-1.1 1.8-1.7.8-.7 1.2-1.5 1.1-2.5-.1-.6.1-1.2.1-1.8 0-.8-.1-1.6-.2-2.4 0-.3-.1-.6 0-.8.8-1.5.2-3.2.6-4.8.1-.2 0-.6-.2-.8-.8-1-.5-2-.3-3 .2-.9.2-1.9.3-2.9 0-.1 0-.2-.1-.3-1-.8-.9-1.8-.8-2.9 0-.4-.5-.8-.8-1.2-.5-.6-1-1-.7-1.9.4-.9.6-1.9 1.9-2.1 1 0 1.8-.5 2.6-.5 1-.1 1.8.5 2.5 1.2.2.1.3.4.2.6-.1 1.5-.2 3.1-.3 4.6-.1 1.5 0 3 0 4.5l.1-.1zM300.7 31c-.8 1.2-1.8 1-2.7 1-2.2.1-4.5-.1-6.8-.2-.2 0-.6-.4-.6-.7-.1-.3.1-.7.3-1 .8-1.4 1.6-2.7 2.3-4.1.2-.5.1-1.1.1-1.7 0-.5-.2-1.1-.1-1.6.6-1.9.4-3.8.3-5.8-.1-.8-.1-1.8-.5-2.5-.3-.8-1-1.4-1.6-2-.3-.3-.8-.8-.7-1 .2-.4.7-.9 1.1-.9 2.1.1 4.3-.8 6.3.4.9.6 1.8.4 2.8 0 1-.5 2.1-.7 3.2-1 .3-.1.8.2 1.1.3l2.4 1.2c.3.2.7.7.6.9-.2 1.2-.5 2.4-.9 3.5-.3.8-1 1.1-1.9.7-1.1-.5-2.1-1.2-3.1-1.9-1.6-1.1-3.6-.4-4.1 1.5-.1.6-.2 1.1-.2 1.7 0 2.2.1 4.3-.4 6.5-.3 1.2-.3 2.5-.1 3.7.1.5.7 1.1 1.2 1.5.6.7 1.3 1.1 2 1.5zM113 3.1c-.2.8-.3 1.5-.5 2.2-.5 2-.7 4-.2 6.1.7 2.6.6 5.3.5 8-.1 1.5-.1 3 .1 4.5.1 1 .5 1.9.4 3.1-.1.7.6 1.5 1 2.1.3.4.7.8 1 1.2.5.8.3 1.4-.6 1.6-1 .2-2.1.3-3.2.3-1.9-.1-3.8-.2-5.7-.4-.3 0-.7-.3-.9-.5-.1-.2.1-.6.3-.9.2-.3.5-.5.8-.6 1.8-.7 2.3-1.6 2.3-3.5 0-1.6.1-3.1.2-4.6.1-1 .2-2 .2-3V10c0-.4-.1-.8-.3-1.2-.4-1.1-.9-2.1-1.3-3.2-.3-.8-.8-1.4-1.5-1.7-.2-.1-.5-.2-.7-.4-.2-.3-.5-.7-.5-1 0-.2.5-.5.8-.6.6-.1 1.3-.1 1.9-.2.7-.2 1.3-.4 2-.6 1.3-.5 2.7-.3 3.5.9.2.3.2.7.4 1.1zM127.7 17c-.3 1.8-.7 3.7-1 5.5-.1.4 0 .9.1 1.3.2.8.5 1.6.6 2.5.1 1.2.2 2.3 1.4 3.1.9.5 1 1.4.7 1.9-.4.7-1.6 1.2-2.4.9-.3-.1-.5-.2-.7-.4-.5-.3-.9-.3-1.4 0-1.2.8-2.5.7-3.4-.4-.3-.4-.4-1.3-.2-1.9 1-3 .8-6.1.6-9.2-.1-1.3-.1-2.5-.2-3.8-.1-.6-.4-1.2-.6-1.9-.1-.3-.3-.7-.2-.9.3-.9-.2-1.2-.9-1.5-.2-.1-.5-.2-.7-.3-.5-.2-.7-.4-.6-1 .1-.5.4-.9.9-.8.7.1 1.4.1 1.9.4 1 .6 2 .5 3.1.3 1.5-.2 2.4.5 2.5 2 .1 1.3 0 2.7 0 4 .3.2.4.2.5.2zm-73.2.9c-.2 1.6-.4 3-.5 4.4 0 .3 0 .7.1 1 .5 1.4.5 2.8.3 4.2-.1.4.2.8.5 1.1.4.4.9.7 1.4 1.1.7.5.8 1 .3 1.7-.7 1-1.7.9-2.8.9-1.7 0-3.5.1-5.2.1-.4 0-.9 0-1.2-.2-.7-.5-.7-.7 0-1.3.2-.2.4-.4.5-.7.4-1.1.6-2.3 1-3.4.7-1.8.8-3.7 1-5.7.2-1.9-.2-3.7-.4-5.5-.1-.9-.5-1.7-1.2-2.3-.5-.4-1-.9-1.4-1.5-.2-.2-.1-.6 0-.9 0-.1.5-.1.7 0 1 .3 2 .3 3-.2 1.7-.8 3.1 0 3.4 1.8.1 1.9.3 3.7.5 5.4zM143.2 57v-7.4h1.9v12.3c-.7-.1-1.3 0-2-.2-.2-.1-.5-.4-.6-.7l-3-7.2c-.1-.3-.3-.5-.4-.8-.1 0-.2.1-.2.1 0 .3-.1.6-.1.9v7.1c0 .8-.4.8-1 .8s-1 .1-1-.8V50.2c0-.5.1-.8.7-.8 2.1 0 2.1-.1 2.9 1.9.7 1.7 1.3 3.3 2 5 .1.3.3.5.4.7h.4zm109.9 4.9c-.9 0-1.6.1-2.3 0-.2 0-.4-.3-.5-.6-.4-1-.7-2.1-1.1-3.2-.4-1.2-.5-1.2-2-1 0 1.2-.1 2.4 0 3.7.1.8-.2 1.1-1 1.1-1.6-.1-1.5.3-1.5-1.5v-11c1.9.1 3.8.1 5.6.3 1.2.1 1.9 1.1 2.1 2.2.4 1.6.2 3.2-1.1 4.4-.2.2-.2.7-.1.9.5 1.5 1.2 3 1.9 4.7zm-5.9-8.8v1.3c0 .2.3.5.4.5.7-.1 1.5-.2 2.1-.5.7-.5.6-1.4.3-2.2-.3-.8-1.1-1.2-2.3-1-.9.2-.3.9-.5 1.4v.5zm-80 8.8c-.9-.2-.9-.2-1.2-1.2-.1 0-.3 0-.4.1-2.7 2.6-6.3.7-6.9-2.4-.4-1.9-.4-3.8.2-5.7.8-2.4 1.9-3.2 4.4-3.2 2.3 0 3.7 1.4 3.7 3.8-.4.1-.7.2-1.1.2-.6.1-1 .1-1.1-.7-.1-.9-.9-1.5-1.7-1.5-.9 0-1.8.8-1.9 1.9-.1 1.7-.1 3.3 0 5 0 .5.4 1.1.8 1.5.6.6 1.4.6 2.1.2.6-.3 1.2-1.6.9-2.1-.1-.2-.5-.3-.8-.4-.3-.1-.9-.2-.9-.3-.1-.5 0-1.1 0-1.6 0-.1.2-.2.4-.2h3.1c.2 0 .5.3.5.5 0 2-.1 4-.1 6.1zm55.2-6.2c.3-1.4.4-2.8.9-4.1.6-1.7 2.1-2.2 3.7-2.3 1.7 0 3 .9 3.5 2.5.9 2.6.9 5.3-.1 7.9-.5 1.3-1.6 2-3 2.2-1.6.2-3-.2-4-1.6-.8-1.1-1-2.1-1-4.5.2 0 .1 0 0-.1zm2.6 0c.1 1.1.2 2.1.4 3.1.2.8.6 1.3 1.5 1.3.8 0 1.3-.6 1.5-1.4.4-2 .4-4.1 0-6.1-.2-.7-.6-1.3-1.4-1.3-.9-.1-1.4.5-1.5 1.2-.2 1.1-.3 2.1-.5 3.2zm41.2-6.2h7.1c.1.1.1.2.1.3.1 1.7.1 1.7-1.6 1.7h-3.1v3.1h3.4c.1.1.1.2.2.2.2 1.9.2 1.9-1.7 1.9h-1.8V60h4.6v2h-6.5c-.5 0-.7-.1-.7-.6V49.5zm-64.1-.1c2 .1 3.8.1 5.6.3 1.2.2 2 1.1 2.2 2.3.2.8.1 1.7 0 2.5-.3 1.7-1.4 2.5-3.4 2.6-2.2.1-1.9-.1-2 2 0 .6-.1 1.2 0 1.7.1.6-.2.9-.8.9h-.4c-1.4.1-1.4.1-1.4-1.3v-10c.2-.2.2-.5.2-1zm2.5 3.7v1.3c0 .6.2.8.8.8.7-.1 1.5-.1 1.8-.9.4-.8.4-1.7-.2-2.5-.5-.7-1.4-.7-2.1-.5-.2.1-.3.8-.4 1.2.1.3.1.4.1.6zm-99.3-.4c-.4-.9-1-1.5-2-1.4-.7 0-1.2.4-1.4 1-.2.6.1 1.1.7 1.4.7.4 1.5.7 2.3 1 1.6.7 2.8 1.9 2.3 4.5-.1.4-.3.9-.5 1.2-1.2 1.9-6 2.3-7.3-.7-.3-.6-.3-.9.5-1.1.8-.2 1.3-.4 1.7.5.4.9 1.5 1.2 2.4.7.4-.2.8-.6.9-1 .2-.6 0-1.2-.6-1.5-.7-.4-1.5-.7-2.3-1-2.7-.9-3.2-4.5-1.2-6.2 1.7-1.5 4.8-1 6 .8.4.6.4 1-.4 1.2-.3.3-.7.4-1.1.6zm74.6 9.1c1-3.4 1.9-6.6 2.9-9.7.1-.1.1-.3.1-.4.6-2.2.6-2.2 3.1-2.1 1.1 4 2.2 8 3.4 12.2-.8 0-1.6.1-2.2-.1-.2-.1-.4-.7-.5-1.1-.1-.9-.5-1.4-1.5-1.2h-.5c-1.9 0-1.9 0-2.5 1.8-.1.3-.5.6-.8.6-.4.1-.9 0-1.5 0zm4.8-9.5h-.4c-.4 1.5-.7 3.1-1 4.6 0 .1.2.5.3.5.7.1 1.5 0 2.3 0-.4-1.9-.8-3.5-1.2-5.1zM124.9.5c.9.2 2.9 1.4 3 2.2.1 1.2 0 2.5-.9 3.6-.9.9-1.8 1.7-3.2 1.2-.3-.1-.8-.3-.9-.6-.6-1-1.3-2-1.8-3.1-.4-1-.1-1.7.8-2.2s2-.7 3-1.1zm-1.8 49c0 .4.1.6.1.8V61c0 .7-.2.9-.9.9-1.9-.1-1.6.2-1.6-1.6v-9.8c0-.8.2-1.1 1-1h1.4zM48.3 4.7c0-1.2 1.3-2.4 2.6-2.4 1.7 0 3 1.6 3 3.4 0 .9-1.6 2.4-2.5 2.4-2.1-.1-3-1.1-3.1-3.4zm206.2 27.5c-.2-.1-.5-.1-.7-.2-1.3-.6-2.6-.9-4-.8-.7.1-1.1-.3-1.4-.9-.8-1.5-.9-3.1-.8-4.7 0-.3.4-.6.7-.7.2-.1.6.3.7.5.5.9.8 1.9 1.3 2.8.8 1.4 2.2 2.1 3.5 2.9.5.3 1 .4.7 1.1z" id="Wildlife_Reserves"/></svg>