<svg version="1.1" id="Layer_1" xmlns="http://www.w3.org/2000/svg" x="0" y="0" viewBox="0 0 429.5 60.9" xml:space="preserve"><style>.st2{fill:#fff}</style><g id="Suntory"><g id="layer1"><g id="g47705"><path id="path47707" class="st2" d="M161.5 51.1H148c.5-4.3.6-11.3.6-17.9v-6c0-6.7-.2-14.1-1-17.9h7.7c2.9 0 4.3 1 4.8 2.9 3.4-2.5 7.5-3.9 11.7-3.9 14.4 0 16.2 8.7 16.2 15.1V35c-.1 5.4.2 10.7.8 16h-7.9c-3.7 0-5.5-2.3-5.5-6V28c0-6.7-.6-11.9-9-11.9-1.9 0-3.7.3-5.5 1v15.1c.2 5.4.2 14.6.6 18.9M121.7 9.2h13.5c-.5 4.3-.6 11.3-.6 17.9v6c0 6.7.3 14.2 1 17.9H128c-2.9 0-4.3-1-4.8-2.9-3.4 2.6-7.5 3.9-11.7 3.9-14.6.1-16.5-8.6-16.5-15.1V25.3c.1-5.4-.2-10.7-.8-16h8c3.7 0 5.5 2.3 5.5 6v17c0 6.7.7 11.9 9 11.9 1.9 0 3.7-.3 5.5-1V27.9c0-5.3-.2-14.4-.5-18.7m-38.2 9.9c-2.4-2.3-6.7-3.6-11.3-3.6-3.2 0-7 .5-7 4.2 0 2.7 3.2 4 8 5.8 5.6 2.1 12.2 4.8 12.2 12.6 0 12.6-13.3 14.2-19.6 14.2-3.5.1-6.9-.3-10.3-1.1-2.9-.7-3.5-2-3.5-5.8v-4.6C55.3 43 60.4 44 64.5 44c5.1 0 7.7-1.4 7.7-4.6 0-3-2.7-4.2-9.9-6.9-5-2-10.3-4.5-10.3-11.8C52 10.1 64 7.4 71.2 7.4c3.5-.1 6.9.5 10.1 1.8 1.9 1 2.1 2 2.1 4.6l.1 5.3z"/></g><g id="g47709"><path id="path47711" class="st2" d="M247.9 29.9c0 9.6 3.3 13.9 9.9 13.9 6.4 0 9.6-4.3 9.6-13.9s-3.2-14.1-9.6-14.1c-6.6 0-9.9 4.5-9.9 14.1m31.9-.2c0 13.9-8 22.6-22.5 22.6-14.4 0-21.8-7.9-21.8-22.2 0-14.2 7.9-22.3 22.3-22.3 14.5.1 22 7.8 22 21.9M227 9.2c2.5 0 5.1-.2 7.6-.5-.5 2-1.1 4.1-2 6.1-1.1 2.3-2.6 3.1-8.2 3.1h-4.8v14.3c0 5.3.2 14.5.6 18.8h-13.6c.5-4.3.6-13.6.6-18.8V18H203c-3.7 0-6.9.5-8.5 1.4v-5.6c0-3.2.6-4.6 5.5-4.6h27z"/></g><g id="g47713"><path id="path47715" class="st2" d="M359.5 38.9v1c-.1 3.8.2 7.6.6 11.3h-13.6c.5-3.7.7-7.5.6-11.3v-1c0-1.7-.5-3.5-1.9-6.4-3-6.1-9.8-17.8-15.6-23.2 3-.3 6-.5 9-.5 5.3 0 6.9 1.7 8.2 3.9 2.6 4.6 4.9 9.4 7 14.3 2-4.8 4.4-9.5 6.9-14.2 1.3-1.9 3-4 7.6-4 2.6 0 5.4.2 8 .5-4.2 3.7-12 16.7-15.3 22.6-1 2.2-1.6 4.6-1.5 7m-34.2 14.6c-5.1 0-6.3-1.9-9.5-6.6-1.8-2.6-7.4-12-8.3-14-.5-1-.6-1.7.3-2.3 4.2-2.4 5.3-5 5.3-7.9 0-3.4-1.4-6.3-6.3-6.3-1.5 0-3 .2-4.5.5v15.2c0 5.3.2 14.5.6 18.8h-13.2c.5-4.2.7-11.3.7-17.9v-6c0-6.7-.2-14.1-1-17.9 6.3 0 15.4-.3 19.4-.3 7 0 16.5 1.4 16.5 12 .1 4.2-2 7.9-5.6 10.1-.6.5-.6.8 0 1.7 4.5 6.7 9.9 14.3 14.9 19.6-3 .8-6.2 1.2-9.3 1.3"/></g></g></g></svg>