<svg xmlns="http://www.w3.org/2000/svg" viewBox="0 0 149.5 62.5"><style>.st0{display:none}.st1{display:inline}.st2{fill:#fff}</style><g id="HBO" class="st0"><g class="st1"><path class="st2" d="M29.17 24.23H18.95V2.56H2.78v58.09h16.17V38.14h10.22v22.51h15.79V2.56H29.17zm88.18-22.64c-16.37 0-24.65 11.91-26.65 16.75 0-7.18-7.18-15.78-15.53-15.78H48.19v58.1h25.1c10.22 0 17.4-8.74 17.4-16.37 2.26 4.72 10.29 16.62 26.65 16.62 16.18 0 29.37-13.46 29.37-29.82.01-16.63-13.18-29.5-29.36-29.5zM71.29 47.13h-8.02V37.3h8.02c2.33 0 4.21 2.26 4.21 4.85 0 2.72-1.88 4.98-4.21 4.98zm0-21.93h-8.02v-9.7h8.02c2.33 0 4.21 2.27 4.21 4.85 0 2.59-1.88 4.85-4.21 4.85zm16.69 10.35c-1.3-1.88-4.2-4.14-6.08-4.46 1.88-.13 4.92-2.27 6.08-3.56-.45 1.55-.45 6.47 0 8.02zm29.37 10.35c-8.15 0-14.75-6.6-14.75-14.81 0-8.15 6.6-14.75 14.75-14.75s14.75 6.6 14.75 14.75c0 8.22-6.6 14.81-14.75 14.81z"/><path class="st2" d="M117.35 19.51c-6.47 0-11.64 5.11-11.64 11.58s5.17 11.64 11.64 11.64c6.28 0 11.58-5.17 11.58-11.64 0-6.47-5.3-11.58-11.58-11.58z"/></g></g><g id="Suntory" class="st0"><g id="layer1" class="st1"><g id="g47705"><path id="path47707" class="st2" d="M50.92 40.58H44.8c.22-1.96.29-5.1.29-8.13v-2.69c0-3.03-.07-6.38-.44-8.12h3.49c1.3 0 1.95.44 2.18 1.3a8.726 8.726 0 0 1 5.3-1.74c6.52 0 7.33 3.92 7.33 6.82v5.31c-.03 2.42.08 4.85.34 7.26H59.7c-1.67 0-2.46-1.02-2.46-2.69v-7.7c0-3.06-.29-5.37-4.08-5.37-.84-.01-1.68.14-2.46.44v6.81c-.01 2.38-.01 6.53.22 8.5M32.89 21.63h6.1c-.21 1.95-.28 5.1-.28 8.12v2.69c0 3.06.14 6.39.43 8.13h-3.47c-1.31 0-1.96-.44-2.19-1.31a8.707 8.707 0 0 1-5.29 1.75c-6.53 0-7.33-3.92-7.33-6.83v-5.3c.02-2.42-.1-4.85-.36-7.26h3.62c1.67 0 2.46 1.02 2.46 2.69v7.7c0 3.06.3 5.37 4.08 5.37.84.01 1.68-.14 2.47-.44v-6.83c0-2.4-.08-6.54-.22-8.5m-17.27 4.52c-1.09-1.02-3.06-1.6-5.1-1.6-1.45 0-3.19.22-3.19 1.89 0 1.23 1.45 1.8 3.63 2.61 2.54.95 5.51 2.18 5.51 5.73 0 5.67-6.02 6.39-8.85 6.39-1.56.04-3.12-.13-4.64-.5-1.31-.36-1.6-.94-1.6-2.69v-2.1c1.46 1.02 3.78 1.52 5.66 1.52 2.32 0 3.48-.65 3.48-2.1 0-1.38-1.23-1.89-4.5-3.12-2.25-.87-4.64-2.04-4.64-5.31 0-4.79 5.44-6.03 8.71-6.03 1.56-.04 3.11.24 4.56.81.87.44.95.94.95 2.1l.02 2.4z"/></g><g id="g47709"><path id="path47711" class="st2" d="M89.96 31c0 4.36 1.52 6.31 4.5 6.31 2.9 0 4.35-1.96 4.35-6.31s-1.44-6.38-4.35-6.38c-2.99 0-4.5 2.04-4.5 6.38m14.44-.07c0 6.31-3.63 10.23-10.16 10.23-6.52 0-9.86-3.57-9.86-10.02 0-6.39 3.56-10.09 10.09-10.09 6.53 0 9.94 3.48 9.94 9.86m-23.88-9.27c1.14 0 2.28-.07 3.42-.22-.24.94-.53 1.86-.88 2.76-.52 1.09-1.18 1.43-3.71 1.43h-2.18v6.46c0 2.38.06 6.53.29 8.5H71.3c.22-1.96.29-6.12.29-8.5v-6.46H69.7c-1.67 0-3.12.22-3.84.65v-2.54c0-1.45.29-2.1 2.46-2.1l12.21.02z"/></g><g id="g47713"><path id="path47715" class="st2" d="M140.46 35.07v.44c-.02 1.7.08 3.41.29 5.1h-6.18c.21-1.69.31-3.39.29-5.1v-.44c0-.8-.21-1.59-.86-2.9-1.38-2.76-4.42-8.06-7.04-10.46 1.35-.15 2.72-.22 4.08-.21 2.38 0 3.12.8 3.7 1.74a67.92 67.92 0 0 1 3.19 6.46c.93-2.18 1.97-4.32 3.12-6.39.58-.87 1.38-1.81 3.42-1.81 1.21 0 2.43.08 3.63.21-1.89 1.67-5.44 7.55-6.9 10.24-.54.95-.79 2.03-.73 3.11m-15.52 6.61c-2.33 0-2.83-.87-4.28-2.98-.81-1.16-3.34-5.44-3.78-6.32-.21-.43-.29-.8.15-1.02 1.89-1.1 2.4-2.25 2.4-3.56 0-1.53-.66-2.83-2.83-2.83a7.79 7.79 0 0 0-2.04.23v6.89c0 2.38.07 6.53.29 8.5h-5.94c.22-1.89.3-5.1.3-8.13v-2.69c0-3.06-.08-6.38-.44-8.13 2.83 0 6.96-.14 8.78-.14 3.19 0 7.48.65 7.48 5.44.03 1.87-.94 3.61-2.54 4.59-.29.21-.29.36 0 .79 2.04 3.06 4.5 6.46 6.75 8.86-1.43.3-2.86.47-4.3.5"/></g></g></g><g id="Furama" class="st0"><g class="st1"><path class="st2" d="M32.11 42.54h6.96v-.7h-1.6V28.77c2.44 0 2.76 2.51 2.79 5.49h.49V23.01h-.49c-.11 2.82-.35 5.07-2.79 5.07V16.01h.65c3.57 0 4.74 2.75 4.95 7.23h.57l-.16-7.93H32.11v.7h1.3v25.83h-1.3v.7zm19.6-6.81c0 4.37 1.65 7.35 5.25 7.35 4.01 0 5.33-2.71 5.33-7.35V17.32c0-1.04.35-1.31 1.35-1.31v-.7h-3.47v.7c1.08 0 1.46.27 1.46 1.74v18.21c0 3.36-.95 5.96-3.17 5.96-1.98 0-2.71-1.89-2.71-4.91v-21h1.41v-.7h-6.82v.7h1.35v19.72zm24.14-19.72h.79c2.68 0 2.79 2.51 2.79 5.68 0 5.14-1.06 5.72-3.57 5.92v-11.6zm-5.36 26.53h6.74v-.7h-1.38V28.31c2.36 0 2.79 1.43 2.84 3.67l.11 5.14c.05 2.59.6 5.72 3.38 5.72 1.11 0 2.17-.39 2.57-.7l-.22-.73c-.19.12-.41.27-.6.27-.65 0-.97-.5-.97-2.94v-1.97c0-6.42-1.25-8.27-5.55-8.74v-.08c3.03-.23 6.39-1.82 6.39-6.46 0-4.6-2.95-6.19-6.17-6.19h-7.15v.7h1.3v25.83h-1.3v.71zm26.64-8.9h-3.65l1.76-9.55h.06l1.83 9.55zm-7.09 8.9h3.6v-.7c-.38 0-1.43-.04-1.43-.89 0-.35.22-1.55.51-3.05l.65-3.56h3.9l1.38 7.5h-1.3v.7h6.58v-.7h-1.19l-4.98-26.53h-1.3l-4.82 24.9c-.22 1.16-.68 1.62-1.6 1.62v.71zm19.65 0h3.55v-.7c-1.22 0-1.46-.31-1.46-3.63V16.47h.05l4.55 26.06h.89l4.47-25.83h.05v25.13h-1.46v.7h6.66v-.7h-1.3V16.01h1.3v-.7h-5.47l-3 16.9h-.05l-3-16.9h-5.63v.7h1.3v22.2c0 3.33-.19 3.63-1.43 3.63v.7zm29.83-8.9h-3.65l1.76-9.55h.05l1.84 9.55zm-7.1 8.9h3.6v-.7c-.38 0-1.43-.04-1.43-.89 0-.35.22-1.55.51-3.05l.65-3.56h3.9l1.38 7.5h-1.3v.7h6.58v-.7h-1.19l-4.98-26.53h-1.3l-4.82 24.9c-.22 1.16-.68 1.62-1.6 1.62v.71z"/><path class="st2" d="M25.27 15v7.76h-6.33s-2.38-.33-2.38 4.24c0 0 1.24-2.29 2.43-2.29h6.09v4.91h-6.57s-1.91.1-1.91 1.38v15.72h130.71v.78H10.86V31c0-1.28-1.91-1.38-1.91-1.38H2.38v-4.91h6.09c1.19 0 2.43 2.29 2.43 2.29 0-4.57-2.38-4.24-2.38-4.24H2.19V15h6.52c.76 0 1.71.52 3.19 2.29s1.31 3.32 1.31 3.32v26.11h.98l-.02-25.58s-.1-2.09 1.38-3.86 2.44-2.29 3.19-2.29h6.53z"/></g></g><g id="Isetan" class="st0"><g class="st1"><path class="st2" d="M39.25 57.1c-.48-.09-.97-.16-1.44-.29-3.93-1-6.34-3.56-7.46-7.38-.32-1.09-.38-2.25-.56-3.37-.03-.19.01-.32.22-.39 2.07-.75 4.13-1.51 6.2-2.27.02-.01.05 0 .11-.01.04.48.06.97.11 1.45.12 1.35.33 2.69.9 3.94.44.98 1.06 1.81 2.15 2.14.8.24 1.62.22 2.4-.03 1-.32 1.45-1.14 1.66-2.1.31-1.39.1-2.7-.69-3.92-.9-1.37-2.01-2.56-3.22-3.64-1.26-1.12-2.56-2.2-3.83-3.31-2.18-1.91-3.95-4.12-4.95-6.88-2.21-6.05 1.68-11.38 6.95-12.66 4.25-1.03 8.12.76 10.32 4.7.35.62.69 1.25 1.02 1.88.4.76.86 1.47 1.7 1.98-2.36.89-4.65 1.76-6.89 2.61-.26-.91-.46-1.81-.8-2.66-.24-.59-.61-1.16-1.03-1.64-.75-.84-1.71-1.2-2.83-.86-1.19.36-1.95 1.18-2.16 2.38-.3 1.72.27 3.25 1.29 4.62.97 1.29 2.23 2.25 3.53 3.17 1.56 1.1 3.12 2.2 4.46 3.58 1.5 1.54 2.79 3.22 3.52 5.27 2.06 5.77-1.75 12.38-7.77 13.5l-.97.18c-.66.01-1.3.01-1.94.01zm-9.93-1.06H1.09c.01-.03 0-.07.02-.07 1.9-1.11 3.02-2.85 3.85-4.82.82-1.95 1.29-4 1.49-6.1.1-1.04.14-2.09.15-3.13.01-10.33 0-20.67.01-31 0-.88-.13-1.74-.44-2.57-.45-1.19-1.08-2.24-2.25-2.95h22.39c-.35.34-.79.68-1.12 1.1-1.01 1.29-1.45 2.78-1.45 4.4 0 10.79-.06 21.58.03 32.37.03 3.33.79 6.56 2.43 9.52.74 1.33 1.71 2.44 3.12 3.25zM15.2 9.18c-2.82-.01-5.06 2.19-5.07 4.97-.01 2.82 2.21 5.04 5.03 5.05 2.82.01 5.05-2.19 5.07-4.98.02-2.81-2.2-5.04-5.03-5.04zm124.58 26.53V18.64h8.63c-.95.83-1.07 1.96-1.11 3.09-.05 1.66-.04 3.32-.04 4.99v28.6c0 .12-.01.25 0 .37.03.29-.09.38-.38.37-2.24-.01-4.48-.01-6.72 0-.31 0-.42-.11-.5-.39-1.65-5.44-3.31-10.88-4.97-16.32-.04-.12-.08-.25-.12-.37-.03.01-.06.01-.09.02v17.02h-7.38V18.61h.4c2.19 0 4.38.01 6.58-.01.31 0 .44.09.53.39 1.66 5.47 3.33 10.93 5 16.39.03.11.08.22.11.33h.06zm-40.89 20.3c2.06-12.47 4.11-24.91 6.16-37.37h11.68c-.93 1.31-.63 2.78-.43 4.19.4 2.85.9 5.68 1.36 8.52.43 2.67.87 5.34 1.3 8.01.46 2.81.9 5.63 1.36 8.44l1.29 7.93c.02.09.02.19.04.33h-.39c-2.28 0-4.56-.01-6.84.01-.31 0-.41-.08-.44-.41-.22-2.04-.47-4.08-.71-6.12-.04-.37-.08-.73-.11-1.1-.02-.2-.11-.29-.33-.29-1.69.01-3.38.01-5.06 0-.21 0-.3.07-.32.29-.24 2-.49 4-.73 6.01-.05.44-.11.88-.16 1.32-.02.19-.08.3-.32.3-2.39-.01-4.78-.01-7.17-.01-.04-.01-.07-.03-.18-.05zm11.46-30.6c-.04 0-.07 0-.11-.01L108.11 42h4.31c-.69-5.55-1.38-11.07-2.07-16.59zm-34.6-6.79c-.12.12-.16.18-.21.23-.76.58-1 1.41-1.03 2.31a76.64 76.64 0 0 0-.04 3.39c0 .34-.13.4-.43.4-3.35-.01-6.7-.01-10.05-.01-.49 0-.49 0-.49.51 0 2.49.01 4.98-.01 7.46 0 .37.08.48.47.48 2.7-.02 5.39-.01 8.09-.01h.44v6.32h-8.97v10.01h10.96v6.34H56.53c-.49 0-.5 0-.5-.51V19.11c0-.5 0-.5.5-.5H75.3c.11.01.23.01.45.01zm23.61.02c-.17.23-.31.42-.46.61-.56.72-.81 1.54-.82 2.44-.02.94-.01 1.87-.01 2.81v.44h-5.86c-.55 0-.55 0-.55.54v30.54h-7.37c-.01-.18-.03-.36-.03-.53V25.71c0-.12-.01-.25 0-.37.03-.3-.09-.4-.4-.4-1.85.01-3.69.01-5.54.01h-.45v-6.3c7.15-.01 14.28-.01 21.49-.01z"/></g></g><g id="OCBC" class="st0"><g class="st1"><path class="st2" d="M5.81 42.2h18.95c.02 0 .04-.05.1-.13-6.69-.27-13.34-.55-20-.82v-.11h20.65c.15 0 .3-.02.45-.04 0-.05-.01-.1-.01-.14-7.35-.34-14.7-.69-22.05-1.03v-.05h.36c2.79 0 5.58.02 8.38-.01 2.47-.02 4.87-.41 7.11-1.48 2.55-1.23 4.16-3.24 4.6-6.06.61-3.87-1.93-7.62-5.74-8.61-1.42-.37-2.84-.35-4.24.09-.11.03-.3.01-.37-.07-1.74-1.91-3.46-3.83-5.18-5.74l-.03-.06c5.37-3.36 14.35-3.26 19.89 3.55 5.56 6.84 4.3 16.88-2.75 22.15-6.81 5.1-15.56 3.38-20.12-1.44zm71.95-11.51c.09.05.13.08.17.09 1.92.45 3.25 2.59 2.3 4.95-.55 1.37-1.62 2.19-2.96 2.71-1.19.46-2.43.59-3.69.59-1.6-.01-3.2-.04-4.81-.07-.13 0-.27-.01-.42-.02V23.51c.08-.01.16-.04.25-.04 2.33-.01 4.66-.05 6.99.01.8.02 1.62.25 2.37.54 1.39.53 2.21 1.57 2.26 3.11.05 1.53-.72 2.59-2 3.32-.13.07-.27.14-.46.24zm-5.53 3.52c0 .54-.01 1.07.01 1.61 0 .09.12.26.19.26.69.02 1.39.04 2.07 0 .31-.02.63-.14.92-.29.72-.36 1.03-.96.97-1.76-.06-.75-.52-1.19-1.19-1.43-.9-.34-1.85-.26-2.79-.25-.06 0-.18.17-.18.27-.01.54 0 1.06 0 1.59zm.03-8v3.5h1.17c.17 0 .34.01.5-.03.42-.09.86-.16 1.26-.32.72-.3 1.06-.95.99-1.7-.07-.63-.49-1.13-1.26-1.25-.87-.13-1.75-.13-2.66-.2zm-27.69-3.06c1.2.04 2.37.21 3.48.67 1.67.68 2.89 1.85 3.52 3.54.9 2.41.94 4.86-.11 7.23-1.14 2.59-3.23 4.03-5.98 4.52-1.51.27-3.02.17-4.49-.26-2.05-.6-3.49-1.89-4.2-3.92-.72-2.05-.83-4.16-.16-6.24.98-3.06 3.17-4.78 6.29-5.37.55-.1 1.1-.11 1.65-.17zm3.65 8.01c-.1-.64-.15-1.29-.3-1.92-.27-1.13-.87-2.05-1.99-2.5-2.03-.82-4.53-.14-5.34 2.4-.5 1.58-.41 3.16.16 4.71.26.7.71 1.27 1.37 1.65 1.53.89 4.24.72 5.43-1.48.48-.89.61-1.85.67-2.86zm59.9-.46c.18.06.28.09.37.11 1.62.48 2.65 1.98 2.51 3.66-.18 2.15-1.5 3.64-3.75 4.24-.93.25-1.88.32-2.83.31-1.26-.01-2.51-.04-3.77-.06h-.63V23.51c.07-.01.14-.04.21-.04 2.06-.01 4.12-.04 6.19.01.65.02 1.31.19 1.93.41 1.38.5 2.23 1.47 2.34 2.98.12 1.63-.63 2.79-2.02 3.58-.16.07-.31.14-.55.25zm-5.03 1.43v4.39c1.06.06 2.11.2 3.14-.15.63-.22 1.15-.59 1.37-1.24.39-1.12.12-2.36-1.47-2.8-.98-.27-1.99-.2-3.04-.2zm0-2.21c.95-.02 1.9.09 2.81-.21.25-.08.5-.2.72-.34.71-.48.92-1.19.82-2-.1-.79-.6-1.25-1.34-1.46-1-.28-2-.1-3.01-.08v4.09zM93.65 27c-1.12-.32-2.24-.48-3.38-.42-1.94.12-3.23 1.22-3.66 3.12-.25 1.13-.22 2.27.07 3.4.45 1.7 1.7 2.68 3.48 2.8 1.2.09 2.36-.11 3.55-.47.09.63.18 1.24.27 1.85.05.35.11.71.13 1.07.01.09-.09.26-.17.28-2.49.65-5 .83-7.48-.03-2.15-.75-3.47-2.29-4-4.48-.49-2.01-.4-4.01.33-5.95 1-2.64 3.01-4.07 5.73-4.57 1.7-.32 3.41-.26 5.11.06.47.09.46.09.39.57-.12.92-.24 1.84-.37 2.77zm-28.39 0c-1.13-.32-2.26-.49-3.41-.41-2.11.13-3.51 1.45-3.78 3.55-.12.95-.1 1.9.13 2.84.43 1.77 1.68 2.83 3.51 2.92.6.03 1.21.01 1.81-.06.6-.07 1.18-.23 1.82-.36.09.58.18 1.2.26 1.81.05.35.11.71.13 1.07.01.09-.09.26-.17.28-2.42.63-4.86.82-7.29.04-2.18-.7-3.57-2.21-4.16-4.42-.52-1.98-.45-3.96.23-5.89.96-2.74 3-4.24 5.8-4.76 1.7-.32 3.41-.25 5.11.06.46.09.46.09.39.57-.13.91-.25 1.83-.38 2.76zm78.72 5.81c1.45 2.04 2.88 4.05 4.35 6.12-.18.01-.28.02-.39.02-1 0-2-.01-2.99.01-.25 0-.4-.07-.54-.29-1.05-1.64-2.11-3.28-3.16-4.92a.9.9 0 0 0-.28-.31v5.48h-2.93V22.26h2.92v10.03c.14-.17.21-.26.28-.35.99-1.37 1.98-2.75 2.96-4.12.13-.18.26-.26.49-.26 1.1.01 2.19.01 3.37.01-1.39 1.77-2.72 3.49-4.08 5.24z"/><path class="st2" d="M17.76 36.35H2.06c-.92-2.62-1.12-5.28-.6-8.05.95.34 1.87.67 2.78.99 1.45.52 2.91 1.04 4.37 1.55.24.08.33.19.33.45.01 1.65.48 3.15 1.47 4.49.06.08.12.16.19.24.01.01.04.02.02.01-.25-.74-.54-1.5-.75-2.28-.21-.79-.21-1.61-.12-2.46.16.05.28.07.39.11 2.43.85 4.86 1.71 7.29 2.56.25.09.35.2.34.48-.03.62-.01 1.24-.01 1.91zm95.71-5.89c-.1-.84-.19-1.64-.3-2.51.84-.17 1.65-.37 2.47-.49 1.25-.18 2.5-.21 3.74.07 1.87.42 2.78 1.53 2.79 3.45.02 2.11.01 4.21.01 6.32v1.61h-2.8c.04-.57.07-1.13.11-1.73-.06.04-.09.06-.1.08-.99 1.53-2.44 2.01-4.17 1.87-.31-.02-.62-.08-.92-.18-1.39-.45-2.11-1.77-1.84-3.32.19-1.07.77-1.87 1.67-2.45.95-.62 2.02-.91 3.12-1.05.62-.08 1.24-.11 1.88-.17 0-.33.04-.67-.01-1-.13-.85-.72-1.28-1.75-1.34-1.33-.08-2.59.16-3.77.77-.01.03-.06.04-.13.07zm5.68 3.48c-.34 0-.66-.02-.98 0-.73.06-1.45.14-2.1.52-.65.38-.93 1.09-.7 1.75.2.57.85.87 1.59.74 1.37-.24 2.32-1.54 2.19-3.01zm8.82 4.99h-2.92V27.58h2.79c-.04.64-.07 1.27-.11 1.94.09-.12.16-.21.22-.31.84-1.19 2-1.8 3.44-1.86.47-.02.95 0 1.4.1 1.31.27 2.13 1.22 2.29 2.6.04.32.07.65.07.97.01 2.52 0 5.04 0 7.57v.32h-2.94v-7.06c0-.28-.01-.56-.06-.84-.16-.98-.85-1.44-1.82-1.22-.68.15-1.19.56-1.58 1.12-.54.77-.78 1.63-.79 2.56-.01 1.67 0 3.34 0 5.01.01.14.01.27.01.45zM3.69 22.75c2.21 1.37 4.38 2.71 6.51 4.03-.29.61-.6 1.16-.82 1.76-.21.58-.33 1.2-.51 1.87-2.39-.92-4.81-1.84-7.25-2.78.43-1.75 1.08-3.37 2.07-4.88zm6.96 3.59c-2.15-1.43-4.27-2.84-6.42-4.28 1.04-1.43 2.27-2.63 3.76-3.61 1.84 1.88 3.66 3.76 5.53 5.68-1.12.55-2.1 1.23-2.87 2.21zm7.11 7.42c-2.68-1.03-5.29-2.03-7.89-3.02.15-1.08.77-2.47 1.46-3.3.08.05.17.09.25.14 1.96 1.24 3.92 2.48 5.88 3.71.23.15.31.3.3.57-.02.61 0 1.22 0 1.9zM2.24 36.9c1.53 0 3.01-.01 4.48.01.13 0 .29.13.37.24.35.53.83.66 1.45.65 1.97-.04 3.94-.02 6.01-.02-.3.31-.58.55-.79.84-.41.57-.93.73-1.63.71-2.41-.05-4.82-.02-7.23-.01-.21 0-.33-.04-.43-.26-.3-.68-.85-1.08-1.57-1.24-.23-.05-.38-.13-.44-.37-.04-.17-.13-.33-.22-.55zm15.52-5.82c-2.07-1.37-4.08-2.7-6.13-4.06.25-.25.46-.52.73-.71.6-.41 1.22-.78 1.84-1.17.15-.09.27-.08.41.06 1 1.01 2.01 2.01 3.01 3.03.07.07.14.19.14.28v2.57z"/></g></g><g id="SATS" class="st0"><g class="st1"><path class="st2" d="M75.82 62.12h-2.11c-.12-.02-.24-.04-.36-.05-1.05-.1-2.11-.15-3.15-.3a30.72 30.72 0 0 1-9.23-2.84c-4-1.96-7.45-4.64-10.29-8.07-4.21-5.09-6.57-10.93-7.04-17.53-.03-.46-.06-.93-.1-1.39v-1.37c.02-.15.04-.3.05-.44.05-1.77.27-3.53.65-5.26 1.2-5.54 3.71-10.41 7.6-14.53 5.4-5.73 12.03-8.99 19.87-9.79 3.46-.35 6.9-.13 10.28.67C87.64 2.56 92.57 5.23 96.7 9.3c5.47 5.39 8.54 11.93 9.19 19.59.18 2.16.11 4.33-.19 6.48a30.25 30.25 0 0 1-2.22 7.98c-2.31 5.29-5.83 9.61-10.52 12.96-2.59 1.85-5.4 3.26-8.43 4.24-2.44.79-4.93 1.28-7.49 1.46-.42.04-.82.08-1.22.11zm-5.96-33.48c.32-.17.62-.35.94-.49 1.53-.66 3.13-.78 4.76-.52.39.06.78.22 1.12.43.47.3.38.91-.14 1.13-.17.07-.35.13-.53.15-.96.11-1.92.21-2.88.32-1 .11-2.01.24-2.97.58-1.01.35-1.81.94-2.11 2.03-.46 1.64.03 3.55 1.98 4.48.9.43 1.85.59 2.83.65 1.61.11 3.15-.14 4.64-.77 1.38-.58 2.04-1.63 2.04-3.12v-4.7c0-.18 0-.35-.03-.53-.18-1.15-.85-1.94-1.85-2.48-.98-.53-2.04-.69-3.13-.74-1.55-.07-3.05.21-4.48.8-.59.25-1.16.57-1.77.87.56.69 1.07 1.31 1.58 1.91zm-4.98.01c.51-.62 1.02-1.23 1.55-1.86-.12-.07-.21-.14-.31-.19-2.11-1.23-4.38-1.75-6.81-1.47-1.09.12-2.11.45-2.98 1.14-1.95 1.55-1.3 3.93.04 4.78.46.29.98.51 1.5.67 1.29.39 2.64.38 3.97.49.63.05 1.26.1 1.84.41.67.36.78 1.12.19 1.61-.28.23-.62.41-.97.51-1.53.43-3.05.3-4.54-.18-.56-.18-1.1-.45-1.66-.68-.49.59-.99 1.2-1.54 1.86.56.3 1.07.61 1.62.85 2.06.89 4.21 1.05 6.41.63.9-.17 1.74-.51 2.43-1.14.87-.79 1.18-1.81 1.12-2.95-.06-1.16-.53-2.06-1.59-2.61-.82-.43-1.72-.62-2.62-.73-1.04-.13-2.08-.19-3.12-.33-.46-.06-.9-.21-1.34-.36-.23-.07-.42-.23-.43-.51-.01-.29.14-.49.38-.61.18-.1.38-.2.58-.24 2.19-.48 4.29-.27 6.28.91zm25.96 7.06c.33.2.62.4.93.56 2.31 1.2 4.76 1.44 7.28.89 1.81-.4 3.16-1.48 3.34-3.38.13-1.41-.32-2.82-1.92-3.41-.73-.27-1.51-.46-2.29-.58-1.03-.16-2.08-.2-3.12-.34a5.45 5.45 0 0 1-1.43-.41c-.46-.2-.47-.7-.06-.99.2-.14.45-.26.69-.32 1.44-.34 2.88-.32 4.3.08.68.19 1.33.52 2.03.79.47-.56.98-1.18 1.5-1.8-.12-.08-.22-.14-.31-.2-2.11-1.23-4.38-1.74-6.81-1.47-1.05.12-2.04.43-2.9 1.09-1.27.98-1.64 2.43-.95 3.79.47.94 1.31 1.39 2.26 1.67 1.35.41 2.76.42 4.15.53.61.05 1.23.1 1.79.39.73.37.81 1.21.15 1.69-.26.19-.57.35-.89.44-1.53.43-3.05.3-4.54-.18-.56-.18-1.1-.44-1.67-.68l-1.53 1.84zm-1.04-.02c-.52-.62-1.02-1.23-1.53-1.85-.07.06-.13.11-.18.16-.42.37-.86.69-1.41.86-1.15.35-2.17-.16-2.53-1.3-.11-.34-.17-.71-.18-1.06-.02-1.21-.01-2.43-.01-3.65 0-.06.01-.12.02-.2h4.88v-2.29h-4.92v-2.95c-.78.34-1.53.67-2.28.98-.19.08-.26.17-.26.39.01 2.5 0 5 .01 7.5 0 .49.03.99.11 1.47.25 1.42.9 2.6 2.26 3.23 1.04.48 2.13.57 3.25.31 1.08-.24 1.98-.8 2.77-1.6z"/><path class="st2" d="M76.99 31.6c0 .63.02 1.25-.01 1.87-.02.48-.28.85-.73 1.01-.5.18-1.01.35-1.53.44-.96.15-1.93.13-2.87-.14-.32-.09-.64-.25-.93-.42-.77-.47-.6-1.52.09-1.92.48-.28 1.01-.34 1.55-.38 1.04-.08 2.09-.13 3.13-.22.43-.04.87-.16 1.3-.24z"/></g></g><g id="Brother"><path class="st2" d="M.78 14.59c.08 0 .17.01.25.01h5.92v9.58c.32-.26.59-.49.87-.72 1.22-.97 2.52-1.78 4.01-2.28.95-.32 1.93-.44 2.94-.41 2.38.06 4.6.66 6.64 1.88 3.23 1.92 5.32 4.71 6.23 8.37.06.25.1.5.16.75.01.05.03.09.08.14.04-.31.08-.62.13-.93.56-3.4 2-6.27 4.95-8.22 1.31-.87 2.76-1.42 4.29-1.76 1.49-.33 3-.44 4.53-.4.04 0 .07.01.14.02v4.94c3.95-4.34 8.72-5.9 14.43-4.42 5.6 1.86 8.73 5.79 9.69 11.58V14.71h6.62v6.1c0 .3 0 .3.3.3h9.54c.26 0 .26 0 .26.26v5.28c0 .19-.04.25-.24.25-3.15-.01-6.31 0-9.46 0-.07 0-.14.01-.21 0-.16-.02-.19.06-.19.2 0 3.04-.04 6.08.02 9.11.04 2.16 1 3.88 2.86 5.04.74.47 1.57.71 2.45.79 2.97.28 5.72-1.74 6.37-4.6.12-.51.17-1.05.18-1.57.01-6.89.01-13.79.01-20.68V15h6.46v8.29c.22-.16.39-.29.57-.43.72-.55 1.45-1.09 2.26-1.5.74-.38 1.51-.64 2.35-.7 2.41-.17 4.57.52 6.49 1.93 2.07 1.52 3.42 3.56 4.18 5.99.27.85.45 1.71.5 2.6.04.64.05 1.28.08 1.91 0 .09.01.18.03.27.24-3.31 1.48-6.19 3.78-8.59 2.3-2.4 5.13-3.79 8.44-4.1 3.61-.34 6.89.58 9.75 2.84 2.85 2.25 4.51 5.21 5.1 8.8l.06-.49c.14-1.34.44-2.65.94-3.91 1.22-3.07 3.39-5.17 6.48-6.33 1.19-.45 2.43-.71 3.69-.86.9-.1 1.8-.12 2.7-.12.13 0 .2.03.2.18v5.56c0 .04-.01.09-.02.16-.12-.01-.24-.03-.36-.03-2.41-.04-4.51.66-6.04 2.63-.71.91-1.12 1.95-1.35 3.07-.15.74-.2 1.49-.2 2.25.01 4.25 0 8.51 0 12.76v.22h-6.19V36.5h-21.08c.08.55.22 1.05.42 1.54.99 2.36 2.71 3.94 5.19 4.61 2.44.65 4.69.17 6.7-1.36a7.357 7.357 0 0 0 2.33-2.99c.05-.11.1-.15.22-.15h5.56c.06 0 .13.01.22.01-.69 2.25-1.85 4.19-3.5 5.83-2.17 2.15-4.77 3.48-7.82 3.85-3.9.47-7.38-.59-10.36-3.13-2.97-2.54-4.56-5.81-4.89-9.71v12.45h-5.87v-.3c0-4.96.03-9.91-.01-14.87-.02-2.2-.96-3.97-2.89-5.12-.86-.51-1.8-.72-2.81-.62-1.89.2-3.22 1.22-4.12 2.84-.49.88-.73 1.84-.73 2.86v15.2h-6.47v-2c-.15.12-.25.19-.35.27-1.34 1.03-2.85 1.65-4.51 1.9-1.03.16-2.06.17-3.09.06-2.34-.26-4.43-1.14-6.24-2.67-1.76-1.49-2.97-3.35-3.69-5.54-.29-.89-.47-1.81-.57-2.74-.04-.36-.04-.72-.07-1.09-.63 4.51-2.82 8.03-6.78 10.3-3.95 2.26-8.11 2.46-12.27.62-3.85-1.7-6.39-4.65-7.53-8.69-1.14-4.04-.46-7.84 1.83-11.37-.04-.01-.08-.03-.11-.02-2.14.05-4.02.7-5.45 2.38-.8.93-1.27 2.03-1.53 3.22-.17.79-.23 1.6-.23 2.41v12.93h-6.16V37.05c-.02 0-.03-.01-.05-.01-.02.08-.05.16-.07.24-.51 2.16-1.49 4.09-2.94 5.77-1.84 2.13-4.13 3.55-6.84 4.28-.8.22-1.62.34-2.45.4-2.49.18-4.87-.26-7.1-1.39-3.36-1.71-5.65-4.38-6.86-7.95-.32-.95-.52-1.93-.6-2.93-.02-.26-.05-.51-.08-.77-.02-6.72-.02-13.41-.02-20.1zm13.63 11.84c-4.17-.02-7.72 3.33-7.72 7.7 0 4.34 3.49 7.7 7.68 7.72 4.21.01 7.73-3.35 7.74-7.7 0-4.41-3.59-7.73-7.7-7.72zm38.08 0c-4.2-.02-7.67 3.36-7.72 7.59-.06 4.4 3.49 7.8 7.67 7.82 4.21.02 7.78-3.37 7.75-7.79-.05-4.26-3.54-7.62-7.7-7.62zm75.75 4.8c-.88-2.97-4.2-5.91-8.57-5.21-1.96.31-3.55 1.29-4.79 2.84-.56.7-.99 1.49-1.26 2.37h14.62zm20.48 13.83c-.07.28-.1.56-.2.83-.4 1.03-1.14 1.66-2.23 1.85-1.53.27-2.89-.7-3.27-2.05a2.89 2.89 0 0 1 2.33-3.65c1.57-.25 3.02.81 3.3 2.31.02.12.05.25.07.37v.34zm-2.92 2.24c1.2.04 2.43-.95 2.43-2.41 0-1.42-1.15-2.41-2.41-2.42-1.26-.01-2.43.98-2.43 2.42-.01 1.47 1.23 2.44 2.41 2.41z"/><path class="st2" d="M146.78 44.89c.1.13.24.24.3.38.06.16.04.35.06.53.02.23.04.45.07.72-.17 0-.39.01-.61-.01-.05-.01-.12-.13-.12-.2-.02-.22-.01-.43-.01-.65 0-.31-.12-.45-.43-.47-.24-.01-.47 0-.71 0-.1 0-.14.04-.14.15.01.34-.01.68 0 1.02 0 .14-.04.18-.18.18-.16-.01-.32 0-.48 0v-3.36c.07 0 .13-.01.19-.01h1.67c.49 0 .82.32.83.81.01.43-.01.48-.44.91zm-1.01-1.19c-.15 0-.31.01-.46 0-.1 0-.14.04-.13.13v.65c0 .05.05.14.08.14.33 0 .66.01.99-.03.25-.03.37-.29.32-.57-.03-.21-.18-.32-.45-.32h-.35z"/></g></svg>