<svg xmlns="http://www.w3.org/2000/svg" version="1.1" id="Layer_1" x="0" y="0" viewBox="0 0 15 15" xml:space="preserve"><style>.st0{fill:none;stroke:#000}</style><path id="Settings" class="st0" d="M5.2 12.1c.7 0 1.2.5 1.2 1.2v.9c0 .1.1.2.2.2h1.9c.1 0 .2-.1.2-.2v-.9c0-.7.5-1.2 1.2-1.2.3 0 .6.1.8.4l.5.5c.1.1.2.1.3 0l1.4-1.4c.1-.1.1-.2 0-.3l-.5-.5c-.5-.5-.5-1.2 0-1.7.2-.2.5-.4.9-.4h.7c.1 0 .2-.1.2-.2V6.6c0-.1-.1-.2-.2-.2h-.9c-.7 0-1.2-.5-1.2-1.2 0-.3.1-.6.4-.9l.5-.5c.1-.1.1-.2 0-.3l-1.4-1.4c-.1-.1-.2-.1-.3 0l-.5.5c-.2.2-.5.4-.8.4s-.5 0-.6-.2c-.3-.4-.5-.7-.5-1V1c0-.1-.1-.2-.2-.2h-2c-.1 0-.2.1-.2.2v.9c0 .6-.5 1.1-1.1 1.1-.3 0-.6-.1-.8-.3l-.5-.4c-.1-.1-.3-.1-.3 0L2.2 3.6c-.1 0-.1.2 0 .3l.5.5c.4.4.4 1.2-.1 1.6-.2.2-.4.3-.7.3H1c-.1 0-.2.1-.2.2v1.9c0 .1.1.2.2.2h.9c.6.1 1.1.6 1.1 1.2 0 .3-.1.6-.4.9l-.5.5c-.1.1-.1.2 0 .3l1.5 1.4c.1.1.2.1.3 0l.5-.5c.2-.2.5-.3.8-.3z"/><circle class="st0" cx="7.5" cy="7.5" r="1.9"/></svg>