<svg xmlns="http://www.w3.org/2000/svg" viewBox="0 0 91.7 11.5"><path d="M35.2 11.5c-.4 0-.7-.3-.7-.7s.3-.7.7-.7c2.4 0 4.4-2 4.4-4.4s-2-4.4-4.4-4.4c-.4 0-.7-.3-.7-.7s.3-.6.7-.6c3.2 0 5.7 2.6 5.7 5.7s-2.6 5.8-5.7 5.8m15.8 0c-.4 0-.7-.3-.7-.7V.7c0-.4.3-.7.7-.7s.7.3.7.7v10.1c0 .3-.3.6-.7.7m35 0c-3.2 0-5.7-2.6-5.7-5.7C80.2 2.6 82.8 0 86 0s5.7 2.6 5.7 5.7c0 3.2-2.6 5.8-5.7 5.8m0-10.1c-2.4 0-4.4 2-4.3 4.4s2 4.4 4.4 4.3c2.4 0 4.3-1.9 4.3-4.3-.1-2.4-2-4.4-4.4-4.4M66.9 11.5c-3.2 0-5.7-2.6-5.7-5.7S63.7 0 66.9 0c.4 0 .7.3.7.7s-.3.7-.7.7c-2.4 0-4.4 2-4.4 4.4s2 4.4 4.4 4.4c2.1 0 4-1.6 4.3-3.7h-1.3c-.4 0-.7-.3-.7-.7s.3-.7.7-.7h2c.4 0 .7.3.7.7 0 3.1-2.6 5.7-5.7 5.7m-61.1 0C2.6 11.5 0 8.9 0 5.7S2.6 0 5.8 0c.4 0 .7.3.7.7s-.3.7-.7.7c-2.4 0-4.4 2-4.4 4.4s2 4.4 4.4 4.4c.4 0 .7.3.7.7 0 .3-.3.6-.7.6m14.6 0c-3.2 0-5.7-2.6-5.7-5.8S17.3 0 20.5 0s5.7 2.6 5.7 5.7c-.1 3.2-2.7 5.8-5.8 5.8m0-10.1c-2.4 0-4.4 2-4.3 4.4 0 2.4 2 4.4 4.4 4.3 2.4 0 4.3-1.9 4.3-4.3-.1-2.4-2-4.4-4.4-4.4" fill="#e43333"/></svg>