<svg version="1.1" id="Layer_1" xmlns="http://www.w3.org/2000/svg" x="0" y="0" viewBox="0 0 93.5 92.8" xml:space="preserve"><style>.st0{display:none}.st1{display:inline}.st2{fill:#fff}</style><g id="HBO" class="st0"><g class="st1"><path class="st2" d="M-14.4 24.2h-10.2V2.6h-16.2v58.1h16.2V38.1h10.2v22.6H1.4V2.6h-15.8zM73.8 1.6c-16.4 0-24.6 11.9-26.6 16.8 0-7.2-7.2-15.8-15.5-15.8h-27v58.1h25.1c10.2 0 17.4-8.7 17.4-16.4 2.3 4.7 10.3 16.6 26.6 16.6 16.2 0 29.4-13.5 29.4-29.8 0-16.6-13.2-29.5-29.4-29.5zm-46 45.5h-8v-9.8h8c2.3 0 4.2 2.3 4.2 4.8 0 2.8-1.9 5-4.2 5zm0-21.9h-8v-9.7h8c2.3 0 4.2 2.3 4.2 4.9 0 2.5-1.9 4.8-4.2 4.8zm16.6 10.3c-1.3-1.9-4.2-4.1-6.1-4.5 1.9-.1 4.9-2.3 6.1-3.6-.4 1.7-.4 6.6 0 8.1zm29.4 10.4c-8.1 0-14.7-6.6-14.7-14.8 0-8.1 6.6-14.8 14.7-14.8 8.2 0 14.8 6.6 14.8 14.8 0 8.2-6.6 14.8-14.8 14.8z"/><path class="st2" d="M73.8 19.5c-6.5 0-11.6 5.1-11.6 11.6s5.2 11.6 11.6 11.6c6.3 0 11.6-5.2 11.6-11.6s-5.3-11.6-11.6-11.6z"/></g></g><g id="Suntory" class="st0"><g id="layer1" class="st1"><g id="g47705"><path id="path47707" class="st2" d="M7.4 40.6H1.3c.2-2 .3-5.1.3-8.1v-2.7c0-3-.1-6.4-.4-8.1h3.5c1.3 0 2 .4 2.2 1.3 1.5-1.1 3.4-1.8 5.3-1.7 6.5 0 7.3 3.9 7.3 6.8v5.3c0 2.4.1 4.8.3 7.3h-3.6c-1.7 0-2.5-1-2.5-2.7v-7.7c0-3.1-.3-5.4-4.1-5.4-.8 0-1.7.1-2.5.4v6.8c.1 2.4.1 6.5.3 8.5m-18-19h6.1c-.2 2-.3 5.1-.3 8.1v2.7c0 3.1.1 6.4.4 8.1h-3.5c-1.3 0-2-.4-2.2-1.3-1.5 1.2-3.4 1.8-5.3 1.8-6.5 0-7.3-3.9-7.3-6.8v-5.3c0-2.4-.1-4.9-.4-7.3h3.6c1.7 0 2.5 1 2.5 2.7V32c0 3.1.3 5.4 4.1 5.4.8 0 1.7-.1 2.5-.4v-6.8c0-2.5-.1-6.6-.2-8.6m-17.3 4.5c-1.1-1-3.1-1.6-5.1-1.6-1.5 0-3.2.2-3.2 1.9 0 1.2 1.4 1.8 3.6 2.6 2.5 1 5.5 2.2 5.5 5.7 0 5.7-6 6.4-8.8 6.4-1.6 0-3.1-.1-4.6-.5-1.3-.4-1.6-.9-1.6-2.7v-2.1c1.5 1 3.8 1.5 5.7 1.5 2.3 0 3.5-.7 3.5-2.1 0-1.4-1.2-1.9-4.5-3.1-2.2-.9-4.6-2-4.6-5.3 0-4.8 5.4-6 8.7-6 1.6 0 3.1.2 4.6.8.9.4.9.9.9 2.1l-.1 2.4z"/></g><g id="g47709"><path id="path47711" class="st2" d="M46.4 31c0 4.4 1.5 6.3 4.5 6.3 2.9 0 4.3-2 4.3-6.3s-1.4-6.4-4.3-6.4c-3 0-4.5 2.1-4.5 6.4m14.5-.1c0 6.3-3.6 10.2-10.2 10.2-6.5 0-9.9-3.6-9.9-10S44.4 21 50.9 21s10 3.5 10 9.9M37 21.6c1.1 0 2.3-.1 3.4-.2-.2.9-.5 1.9-.9 2.8-.5 1.1-1.2 1.4-3.7 1.4h-2.2v6.5c0 2.4.1 6.5.3 8.5h-6.2c.2-2 .3-6.1.3-8.5v-6.5h-1.9c-1.7 0-3.1.2-3.8.6v-2.5c0-1.5.3-2.1 2.5-2.1H37z"/></g><g id="g47713"><path id="path47715" class="st2" d="M96.9 35.1v.4c0 1.7.1 3.4.3 5.1H91c.2-1.7.3-3.4.3-5.1v-.4c0-.8-.2-1.6-.9-2.9-1.4-2.8-4.4-8.1-7-10.5 1.4-.1 2.7-.2 4.1-.2 2.4 0 3.1.8 3.7 1.7 1.2 2.1 2.2 4.2 3.2 6.5.9-2.2 2-4.3 3.1-6.4.6-.9 1.4-1.8 3.4-1.8 1.2 0 2.4.1 3.6.2-1.9 1.7-5.4 7.6-6.9 10.2-.5 1-.7 2.1-.7 3.2m-15.5 6.6c-2.3 0-2.8-.9-4.3-3-.8-1.2-3.3-5.4-3.8-6.3-.2-.4-.3-.8.1-1 1.9-1.1 2.4-2.2 2.4-3.6 0-1.5-.7-2.8-2.8-2.8-.7 0-1.4.1-2 .2v6.9c0 2.4.1 6.5.3 8.5h-5.9c.2-1.9.3-5.1.3-8.1v-2.7c0-3.1-.1-6.4-.4-8.1 2.8 0 7-.1 8.8-.1 3.2 0 7.5.6 7.5 5.4 0 1.9-.9 3.6-2.5 4.6-.3.2-.3.4 0 .8 2 3.1 4.5 6.5 6.8 8.9-1.6.2-3 .3-4.5.4"/></g></g></g><g id="Furama" class="st0"><g class="st1"><path class="st2" d="M-11.4 42.5h7v-.7H-6v-13c2.4 0 2.8 2.5 2.8 5.5h.5V23h-.5c-.1 2.8-.3 5.1-2.8 5.1V16h.7c3.6 0 4.7 2.8 5 7.2h.6l-.2-7.9h-11.4v.7h1.3v25.8h-1.3v.7zm19.6-6.8c0 4.4 1.7 7.3 5.2 7.3 4 0 5.3-2.7 5.3-7.3V17.3c0-1 .3-1.3 1.3-1.3v-.7h-3.5v.7c1.1 0 1.5.3 1.5 1.7V36c0 3.4-1 6-3.2 6-2 0-2.7-1.9-2.7-4.9V16h1.4v-.7H6.8v.7h1.3l.1 19.7zM32.3 16h.8c2.7 0 2.8 2.5 2.8 5.7 0 5.1-1.1 5.7-3.6 5.9V16zM27 42.5h6.7v-.7h-1.4V28.3c2.4 0 2.8 1.4 2.8 3.7l.1 5.1c.1 2.6.6 5.7 3.4 5.7 1.1 0 2.2-.4 2.6-.7l-.2-.7c-.2.1-.4.3-.6.3-.7 0-1-.5-1-2.9v-2c0-6.4-1.2-8.3-5.6-8.7V28c3-.2 6.4-1.8 6.4-6.5 0-4.6-2.9-6.2-6.2-6.2h-7.2v.7h1.3v25.8h-1.3l.2.7zm26.6-8.9h-3.7l1.8-9.5h.1l1.8 9.5zm-7.1 8.9h3.6v-.7c-.4 0-1.4 0-1.4-.9 0-.3.2-1.5.5-3l.7-3.6h3.9l1.4 7.5h-1.3v.7h6.6v-.7h-1.2l-5-26.5H53l-4.8 24.9c-.2 1.2-.7 1.6-1.6 1.6-.1 0-.1.7-.1.7zm19.7 0h3.6v-.7c-1.2 0-1.5-.3-1.5-3.6V16.5h.1L73 42.6h.9l4.5-25.8h.1v25.1H77v.7h6.7v-.7h-1.3V16h1.3v-.7H78l-3 16.9h-.1l-3-16.9h-5.6v.7h1.3v22.2c0 3.3-.2 3.6-1.4 3.6v.7zM96 33.6h-3.6l1.8-9.5h.1l1.7 9.5zm-7.1 8.9h3.6v-.7c-.4 0-1.4 0-1.4-.9 0-.3.2-1.5.5-3l.6-3.6h3.9l1.4 7.5h-1.3v.7h6.6v-.7h-1.2l-5-26.5h-1.3l-4.8 24.9c-.2 1.2-.7 1.6-1.6 1.6v.7z"/><path class="st2" d="M-18.3 15v7.8h-6.3S-27 22.5-27 27c0 0 1.2-2.3 2.4-2.3h6.1v4.9H-25s-1.9.1-1.9 1.4v15.7h130.7v.8H-32.7V31c0-1.3-1.9-1.4-1.9-1.4h-6.6v-4.9h6.1c1.2 0 2.4 2.3 2.4 2.3 0-4.6-2.4-4.2-2.4-4.2h-6.3V15h6.5c.8 0 1.7.5 3.2 2.3 1.5 1.8 1.3 3.3 1.3 3.3v26.1h1V21.1s-.1-2.1 1.4-3.9c1.5-1.8 2.4-2.3 3.2-2.3l6.5.1z"/></g></g><g id="Isetan" class="st0"><g class="st1"><path class="st2" d="M-4.3 57.1c-.5-.1-1-.2-1.4-.3-3.9-1-6.3-3.6-7.5-7.4-.3-1.1-.4-2.2-.6-3.4 0-.2 0-.3.2-.4 2.1-.8 4.1-1.5 6.2-2.3h.1c0 .5.1 1 .1 1.5.1 1.3.3 2.7.9 3.9.4 1 1.1 1.8 2.2 2.1.8.2 1.6.2 2.4 0 1-.3 1.5-1.1 1.7-2.1.3-1.4.1-2.7-.7-3.9-.9-1.4-2-2.6-3.2-3.6-1.3-1.1-2.6-2.2-3.8-3.3-2.2-1.9-4-4.1-5-6.9-2.2-6 1.7-11.4 7-12.7 4.2-1 8.1.8 10.3 4.7.3.6.7 1.2 1 1.9.4.8.9 1.5 1.7 2-2.4.9-4.7 1.8-6.9 2.6-.3-.9-.5-1.8-.8-2.7-.2-.6-.6-1.2-1-1.6-.8-.8-1.7-1.2-2.8-.9-1.2.4-2 1.2-2.2 2.4-.3 1.7.3 3.2 1.3 4.6 1 1.3 2.2 2.2 3.5 3.2 1.6 1.1 3.1 2.2 4.5 3.6 1.5 1.5 2.8 3.2 3.5 5.3 2.1 5.8-1.8 12.4-7.8 13.5-.3.1-.6.1-.9.2h-2zm-9.9-1.1h-28.2v-.1c1.9-1.1 3-2.8 3.8-4.8.8-2 1.3-4 1.5-6.1.1-1 .1-2.1.1-3.1v-31c0-.9-.1-1.7-.4-2.6-.5-1.2-1.1-2.2-2.2-3h22.4c-.4.3-.8.7-1.1 1.1a7.1 7.1 0 0 0-1.5 4.4c0 10.8-.1 21.6 0 32.4 0 3.3.8 6.6 2.4 9.5.8 1.4 1.8 2.5 3.2 3.3zM-28.3 9.2c-2.8 0-5.1 2.2-5.1 5s2.2 5 5 5.1c2.8 0 5-2.2 5.1-5 0-2.9-2.2-5.1-5-5.1zM96.2 35.7V18.6h8.6c-.9.8-1.1 2-1.1 3.1-.1 1.7 0 3.3 0 5v29c0 .3-.1.4-.4.4h-6.7c-.3 0-.4-.1-.5-.4-1.6-5.4-3.3-10.9-5-16.3 0-.1-.1-.2-.1-.4h-.1v17h-7.4V18.6h7c.3 0 .4.1.5.4 1.7 5.5 3.3 10.9 5 16.4.1.1.2.2.2.3zM55.4 56c2.1-12.5 4.1-24.9 6.2-37.4h11.7c-.9 1.3-.6 2.8-.4 4.2.4 2.9.9 5.7 1.4 8.5.4 2.7.9 5.3 1.3 8 .5 2.8.9 5.6 1.4 8.4.4 2.6.9 5.3 1.3 7.9v.3h-7.2c-.3 0-.4-.1-.4-.4-.2-2-.5-4.1-.7-6.1 0-.4-.1-.7-.1-1.1 0-.2-.1-.3-.3-.3h-5.1c-.2 0-.3.1-.3.3-.2 2-.5 4-.7 6-.1.4-.1.9-.2 1.3 0 .2-.1.3-.3.3h-7.2c-.3.1-.3.1-.4.1zm11.4-30.6h-.1c-.7 5.5-1.4 11.1-2.1 16.6h4.3c-.7-5.5-1.4-11.1-2.1-16.6zm-34.6-6.8l-.2.2c-.8.6-1 1.4-1 2.3 0 1.1-.1 2.3 0 3.4 0 .3-.1.4-.4.4h-10c-.5 0-.5 0-.5.5v7.5c0 .4.1.5.5.5h8.5v6.3h-9v10h11V56H13.2c-.5 0-.5 0-.5-.5V19.1c0-.5 0-.5.5-.5h19zm23.6 0c-.2.2-.3.4-.5.6-.6.7-.8 1.5-.8 2.4v3.2h-5.9c-.6 0-.6 0-.6.5v30.6h-7.4V25.2c0-.3-.1-.4-.4-.4h-5.9v-6.3c7.2.1 14.3.1 21.5.1z"/></g></g><g id="OCBC" class="st0"><g class="st1"><path class="st2" d="M-37.7 42.2h18.9l.1-.1c-6.7-.3-13.3-.5-20-.8v-.1h21.1v-.1c-7.4-.3-14.7-.7-22-1h8.8c2.5 0 4.9-.4 7.1-1.5 2.5-1.2 4.2-3.2 4.6-6.1.6-3.9-1.9-7.6-5.7-8.6-1.4-.4-2.8-.4-4.2.1-.1 0-.3 0-.4-.1-1.7-1.9-3.5-3.8-5.2-5.7v-.1c5.4-3.4 14.3-3.3 19.9 3.5 5.6 6.8 4.3 16.9-2.8 22.1-6.9 5-15.7 3.3-20.2-1.5zm71.9-11.5c.1 0 .1.1.2.1 1.9.5 3.2 2.6 2.3 4.9-.6 1.4-1.6 2.2-3 2.7-1.2.5-2.4.6-3.7.6-1.6 0-3.2 0-4.8-.1h-.4V23.5H32c.8 0 1.6.2 2.4.5 1.4.5 2.2 1.6 2.3 3.1.1 1.5-.7 2.6-2 3.3-.2.1-.3.2-.5.3zm-5.5 3.5v1.6c0 .1.1.3.2.3H31c.3 0 .6-.1.9-.3.7-.4 1-1 1-1.8-.1-.8-.5-1.2-1.2-1.4-.9-.3-1.8-.3-2.8-.2-.1 0-.2.2-.2.3v1.5zm0-8v3.5h1.7c.4-.1.9-.2 1.3-.3.7-.3 1.1-1 1-1.7-.1-.6-.5-1.1-1.3-1.2-.9-.2-1.8-.2-2.7-.3zM1 23.1c1.2 0 2.4.2 3.5.7 1.7.7 2.9 1.9 3.5 3.5.9 2.4.9 4.9-.1 7.2-1.1 2.6-3.2 4-6 4.5-1.5.3-3 .2-4.5-.3-2-.6-3.5-1.9-4.2-3.9-.7-2-.8-4.2-.2-6.2 1-3.1 3.2-4.8 6.3-5.4.6 0 1.2 0 1.7-.1zm3.7 8.1c-.1-.6-.2-1.3-.3-1.9-.3-1.1-.9-2-2-2.5-2-.8-4.5-.1-5.3 2.4-.5 1.6-.4 3.2.2 4.7.3.7.7 1.3 1.4 1.7 1.4.8 4.1.6 5.3-1.6.5-.9.6-1.8.7-2.8zm59.9-.5c.2.1.3.1.4.1 1.6.5 2.6 2 2.5 3.7-.2 2.2-1.5 3.6-3.7 4.2-1 .3-2 .3-2.9.3-1.3 0-2.5 0-3.8-.1h-.6V23.4h6.4c.7 0 1.3.2 1.9.4 1.4.5 2.2 1.5 2.3 3 .1 1.6-.6 2.8-2 3.6-.1.1-.3.2-.5.3zm-5.1 1.4v4.4c1.1.1 2.1.2 3.1-.2.6-.2 1.2-.6 1.4-1.2.4-1.1.1-2.4-1.5-2.8-.9-.2-1.9-.2-3-.2zm0-2.2c.9 0 1.9.1 2.8-.2.2-.1.5-.2.7-.3.7-.5.9-1.2.8-2-.1-.8-.6-1.2-1.3-1.5-1-.3-2-.1-3-.1v4.1zM50.1 27c-1.1-.3-2.2-.5-3.4-.4-1.9.1-3.2 1.2-3.7 3.1-.2 1.1-.2 2.3.1 3.4.4 1.7 1.7 2.7 3.5 2.8 1.2.1 2.4-.1 3.6-.5l.3 1.8c.1.3.1.7.1 1.1 0 .1-.1.3-.2.3-2.5.7-5 .8-7.5 0-2.2-.8-3.5-2.3-4-4.5-.5-2-.4-4 .3-6 1-2.6 3-4.1 5.7-4.6 1.7-.3 3.4-.3 5.1.1.5.1.5.1.4.6 0 .9-.2 1.9-.3 2.8zm-28.4 0c-1.1-.3-2.3-.5-3.4-.4-2.1.1-3.5 1.5-3.8 3.5-.1 1-.1 1.9.1 2.8.4 1.8 1.7 2.8 3.5 2.9.6 0 1.2 0 1.8-.1.6-.1 1.2-.2 1.8-.4l.3 1.8c.1.3.1.7.1 1.1 0 .1-.1.3-.2.3-2.4.6-4.9.8-7.3 0-2.2-.7-3.6-2.2-4.2-4.4-.5-2-.5-4 .2-5.9 1-2.7 3-4.2 5.8-4.8 1.7-.3 3.4-.2 5.1.1.5.1.5.1.4.6.1 1 0 2-.2 2.9zm78.7 5.8c1.4 2 2.9 4 4.4 6.1h-3.4c-.2 0-.4-.1-.5-.3-1.1-1.6-2.1-3.3-3.2-4.9-.1-.1-.1-.2-.3-.3v5.5h-2.9V22.2h2.9v10c.1-.2.2-.3.3-.4 1-1.4 2-2.8 3-4.1.1-.2.3-.3.5-.3h3.4c-1.5 1.9-2.8 3.7-4.2 5.4z"/><path class="st2" d="M-25.8 36.3h-15.7c-.9-2.6-1.1-5.3-.6-8 1 .3 1.9.7 2.8 1 1.4.5 2.9 1 4.4 1.5.2.1.3.2.3.5 0 1.6.5 3.1 1.5 4.5.1.1.1.2.2.2-.2-.7-.5-1.5-.8-2.3-.2-.8-.2-1.6-.1-2.5.2 0 .3.1.4.1 2.4.8 4.9 1.7 7.3 2.6.2.1.4.2.3.5v1.9zm95.7-5.8c-.1-.8-.2-1.6-.3-2.5.8-.2 1.6-.4 2.5-.5 1.2-.2 2.5-.2 3.7.1 1.9.4 2.8 1.5 2.8 3.5V39h-2.8c0-.6.1-1.1.1-1.7-.1 0-.1.1-.1.1-1 1.5-2.4 2-4.2 1.9-.3 0-.6-.1-.9-.2-1.4-.5-2.1-1.8-1.8-3.3.2-1.1.8-1.9 1.7-2.5.9-.6 2-.9 3.1-1 .6-.3 1.3-.3 1.9-.3v-1c-.1-.9-.7-1.3-1.8-1.3-1.3-.1-2.6.2-3.8.8.1-.1 0-.1-.1 0zm5.7 3.4h-1c-.7.1-1.4.1-2.1.5-.6.4-.9 1.1-.7 1.8.2.6.9.9 1.6.7 1.4-.2 2.3-1.5 2.2-3zm8.8 5h-2.9V27.5h2.8c0 .6-.1 1.3-.1 1.9.1-.1.2-.2.2-.3.8-1.2 2-1.8 3.4-1.9.5 0 .9 0 1.4.1 1.3.3 2.1 1.2 2.3 2.6 0 .3.1.6.1 1v7.9h-2.9v-7.1c0-.3 0-.6-.1-.8-.2-1-.9-1.4-1.8-1.2-.7.1-1.2.6-1.6 1.1-.5.8-.8 1.6-.8 2.6v5.5zM-39.8 22.8c2.2 1.4 4.4 2.7 6.5 4-.3.6-.6 1.2-.8 1.8-.2.6-.3 1.2-.5 1.9-2.4-.9-4.8-1.8-7.2-2.8.3-1.8 1-3.4 2-4.9zm6.9 3.5c-2.1-1.4-4.3-2.8-6.4-4.3 1-1.4 2.3-2.6 3.8-3.6 1.8 1.9 3.7 3.8 5.5 5.7-1.1.6-2.1 1.3-2.9 2.2zm7.1 7.5c-2.7-1-5.3-2-7.9-3 .2-1.1.8-2.5 1.5-3.3.1 0 .2.1.2.1 2 1.2 3.9 2.5 5.9 3.7.2.1.3.3.3.6v1.9zm-15.5 3.1h4.5c.1 0 .3.1.4.2.3.5.8.7 1.5.7h6c-.3.3-.6.5-.8.8-.4.6-.9.7-1.6.7h-7.2c-.2 0-.3 0-.4-.3-.3-.7-.9-1.1-1.6-1.2-.2 0-.4-.1-.4-.4-.2-.1-.3-.3-.4-.5zm15.5-5.8c-2.1-1.4-4.1-2.7-6.1-4.1l.7-.7 1.8-1.2c.1-.1.3-.1.4.1l3 3c.1.1.1.2.1.3.1.8.1 1.7.1 2.6z"/></g></g><g id="SATS"><path class="st2" d="M48.3 92.8h-3.2c-.2 0-.4-.1-.5-.1-1.6-.1-3.2-.2-4.7-.4-4.8-.7-9.4-2.1-13.8-4.3-6-2.9-11.1-6.9-15.4-12.1C4.4 68.3.9 59.6.1 49.7c0-.7-.1-1.4-.1-2.1v-2.1c0-.2.1-.4.1-.7.1-2.6.4-5.3 1-7.9 1.8-8.3 5.6-15.6 11.4-21.7C20.6 6.6 30.5 1.7 42.2.5c5.2-.5 10.3-.2 15.4 1 8.5 2 15.8 6 22 12.1 8.2 8.1 12.8 17.9 13.8 29.3.3 3.2.2 6.5-.3 9.7-.6 4.1-1.7 8.1-3.3 11.9C86.2 72.6 81 79.1 74 84.1c-3.9 2.8-8.1 4.9-12.6 6.3-3.7 1.2-7.4 1.9-11.2 2.2-.7.1-1.3.1-1.9.2zm-8.9-50.1c.5-.3.9-.5 1.4-.7 2.3-1 4.7-1.2 7.1-.8.6.1 1.2.3 1.7.6.7.4.6 1.4-.2 1.7-.3.1-.5.2-.8.2-1.4.2-2.9.3-4.3.5-1.5.2-3 .4-4.4.9-1.5.5-2.7 1.4-3.2 3-.7 2.5 0 5.3 3 6.7 1.3.6 2.8.9 4.2 1 2.4.2 4.7-.2 6.9-1.2 2.1-.9 3.1-2.4 3.1-4.7v-7.8c-.3-1.7-1.3-2.9-2.8-3.7-1.5-.8-3.1-1-4.7-1.1-2.3-.1-4.6.3-6.7 1.2-.9.4-1.7.9-2.6 1.3.8 1 1.5 2 2.3 2.9zm-7.5 0c.8-.9 1.5-1.8 2.3-2.8-.2-.1-.3-.2-.5-.3-3.2-1.8-6.6-2.6-10.2-2.2-1.6.2-3.2.7-4.5 1.7-2.9 2.3-1.9 5.9.1 7.2.7.4 1.5.8 2.2 1 1.9.6 4 .6 5.9.7.9.1 1.9.1 2.8.6 1 .5 1.2 1.7.3 2.4-.4.3-.9.6-1.5.8-2.3.6-4.6.4-6.8-.3-.8-.3-1.6-.7-2.5-1-.7.9-1.5 1.8-2.3 2.8.8.4 1.6.9 2.4 1.3 3.1 1.3 6.3 1.6 9.6.9 1.3-.3 2.6-.8 3.6-1.7 1.3-1.2 1.8-2.7 1.7-4.4-.1-1.7-.8-3.1-2.4-3.9-1.2-.6-2.6-.9-3.9-1.1-1.6-.2-3.1-.3-4.7-.5-.7-.1-1.3-.3-2-.5-.3-.1-.6-.3-.6-.8 0-.4.2-.7.6-.9.3-.1.6-.3.9-.4 3.4-.7 6.6-.4 9.5 1.4zm38.9 10.6c.5.3.9.6 1.4.8 3.5 1.8 7.1 2.2 10.9 1.3 2.7-.6 4.7-2.2 5-5.1.2-2.1-.5-4.2-2.9-5.1-1.1-.4-2.3-.7-3.4-.9-1.5-.2-3.1-.3-4.7-.5-.7-.1-1.5-.3-2.1-.6-.7-.3-.7-1-.1-1.5.3-.2.7-.4 1-.5 2.2-.5 4.3-.5 6.4.1 1 .3 2 .8 3 1.2.7-.8 1.5-1.8 2.2-2.7-.2-.1-.3-.2-.5-.3-3-1.7-6.4-2.5-10-2.1-1.6.2-3.1.6-4.3 1.6-1.9 1.5-2.5 3.6-1.4 5.7.7 1.4 2 2.1 3.4 2.5 2 .6 4.1.6 6.2.8.9.1 1.8.1 2.7.6 1.1.6 1.2 1.8.2 2.5-.4.3-.9.5-1.3.7-2.3.6-4.6.4-6.8-.3-.8-.3-1.6-.7-2.5-1-.9.9-1.6 1.8-2.4 2.8zm-1.6-.1c-.8-.9-1.5-1.8-2.3-2.8-.1.1-.2.2-.3.2-.6.6-1.3 1-2.1 1.3-1.7.5-3.2-.2-3.8-1.9-.2-.5-.3-1.1-.3-1.6v-5.8h7.3v-3.4h-7.4v-4.4c-1.2.5-2.3 1-3.4 1.5-.3.1-.4.3-.4.6v11.2c0 .7 0 1.5.2 2.2.4 2.1 1.3 3.9 3.4 4.8 1.6.7 3.2.9 4.9.5 1.7-.3 3.1-1.2 4.2-2.4z"/><path class="st2" d="M50.1 47.1v2.8c0 .7-.4 1.3-1.1 1.5-.7.3-1.5.5-2.3.7-1.4.2-2.9.2-4.3-.2-.5-.1-1-.4-1.4-.6-1.2-.7-.9-2.3.1-2.9.7-.4 1.5-.5 2.3-.6 1.6-.1 3.1-.2 4.7-.3.7-.1 1.3-.3 2-.4z"/></g></svg>