<svg xmlns="http://www.w3.org/2000/svg" viewBox="0 0 22.2 17.4"><path d="M21.9 2c-.5.2-1 .4-1.5.5.6-.5 1-1.2 1.3-1.9 0-.1 0-.3-.2-.3h-.2c-.7.4-1.5.7-2.3.9h-.1c-.2 0-.3-.1-.4-.1-.9-.7-2-1.1-3.2-1.1-.5 0-1 .1-1.5.2-2.1.6-3.5 2.6-3.2 4.8v.1l-.1.1C6.9 5 3.8 3.4 1.6.9c-.1-.1-.3-.1-.4 0V1C.7 1.6.5 2.4.5 3.2c0 1.2.5 2.4 1.4 3.2-.4-.1-.7-.2-1.1-.4-.1-.1-.2 0-.3.1v.1c0 1.8 1.1 3.5 2.8 4.2h-.1c-.3 0-.5 0-.8-.1-.1 0-.3 0-.3.2v.1c.6 1.6 2.1 2.8 3.8 3.1-1.5.9-3.2 1.4-5 1.4H.4c-.2 0-.3.1-.4.3 0 .2 0 .3.2.4 2 1.1 4.3 1.7 6.6 1.7 1.9 0 3.9-.4 5.7-1.1 1.6-.7 3-1.7 4.1-2.9 1.1-1.2 1.9-2.5 2.5-4 .6-1.5.9-3 .9-4.5v-.1c0-.2.1-.5.3-.6.7-.6 1.4-1.2 1.9-2 .1-.1 0-.3-.1-.3h-.2z"/></svg>